G04 #@! TF.FileFunction,Copper,L1,Top,Signal*
%FSLAX46Y46*%
G04 Gerber Fmt 4.6, Leading zero omitted, Abs format (unit mm)*
G04 Created by KiCad (PCBNEW 4.0.7) date 10/31/17 13:14:18*
%MOMM*%
%LPD*%
G01*
G04 APERTURE LIST*
%ADD10C,0.150000*%
%ADD11R,1.727200X1.727200*%
%ADD12O,1.727200X1.727200*%
%ADD13R,1.700000X1.700000*%
%ADD14O,1.700000X1.700000*%
%ADD15R,1.600000X1.600000*%
%ADD16O,1.600000X1.600000*%
%ADD17C,0.889000*%
%ADD18C,0.304800*%
G04 APERTURE END LIST*
D10*
D11*
X135700000Y-73300000D03*
D12*
X135700000Y-70760000D03*
X138240000Y-73300000D03*
X138240000Y-70760000D03*
X140780000Y-73300000D03*
X140780000Y-70760000D03*
X143320000Y-73300000D03*
X143320000Y-70760000D03*
X145860000Y-73300000D03*
X145860000Y-70760000D03*
D13*
X153450000Y-84250000D03*
D14*
X153450000Y-86790000D03*
X153450000Y-89330000D03*
X153450000Y-91870000D03*
D13*
X153550000Y-103000000D03*
D14*
X153550000Y-105540000D03*
X153550000Y-108080000D03*
X153550000Y-110620000D03*
D15*
X133500000Y-81650000D03*
D16*
X148740000Y-114670000D03*
X133500000Y-84190000D03*
X148740000Y-112130000D03*
X133500000Y-86730000D03*
X148740000Y-109590000D03*
X133500000Y-89270000D03*
X148740000Y-107050000D03*
X133500000Y-91810000D03*
X148740000Y-104510000D03*
X133500000Y-94350000D03*
X148740000Y-101970000D03*
X133500000Y-96890000D03*
X148740000Y-99430000D03*
X133500000Y-99430000D03*
X148740000Y-96890000D03*
X133500000Y-101970000D03*
X148740000Y-94350000D03*
X133500000Y-104510000D03*
X148740000Y-91810000D03*
X133500000Y-107050000D03*
X148740000Y-89270000D03*
X133500000Y-109590000D03*
X148740000Y-86730000D03*
X133500000Y-112130000D03*
X148740000Y-84190000D03*
X133500000Y-114670000D03*
X148740000Y-81650000D03*
X133500000Y-117210000D03*
X148740000Y-117210000D03*
D17*
X140850000Y-94600000D03*
X140850000Y-89300000D03*
D18*
X140850000Y-89300000D02*
X140850000Y-94600000D01*
X133500000Y-89270000D02*
X134530000Y-89270000D01*
X138240000Y-76110000D02*
X138240000Y-73300000D01*
X136950000Y-77000000D02*
X138240000Y-76110000D01*
X136950000Y-86450000D02*
X136950000Y-77000000D01*
X134530000Y-89270000D02*
X136950000Y-86450000D01*
X133500000Y-114670000D02*
X132720000Y-114670000D01*
X132720000Y-114670000D02*
X131200000Y-113150000D01*
X131200000Y-113150000D02*
X131200000Y-72900000D01*
X131200000Y-72900000D02*
X133340000Y-70760000D01*
X133340000Y-70760000D02*
X135700000Y-70760000D01*
X133500000Y-112130000D02*
X135680000Y-112130000D01*
X138240000Y-69540000D02*
X138240000Y-70760000D01*
X137800000Y-69100000D02*
X138240000Y-69540000D01*
X133650000Y-69100000D02*
X137800000Y-69100000D01*
X129150000Y-73600000D02*
X133650000Y-69100000D01*
X129150000Y-112350000D02*
X129150000Y-73600000D01*
X131000000Y-114200000D02*
X129150000Y-112350000D01*
X131000000Y-119000000D02*
X131000000Y-114200000D01*
X132250000Y-119750000D02*
X131000000Y-119000000D01*
X134450000Y-119750000D02*
X132250000Y-119750000D01*
X136550000Y-117850000D02*
X134450000Y-119750000D01*
X136550000Y-113200000D02*
X136550000Y-117850000D01*
X135680000Y-112130000D02*
X136550000Y-113200000D01*
X133500000Y-96890000D02*
X134460000Y-96890000D01*
X140780000Y-75820000D02*
X140780000Y-73300000D01*
X138800000Y-77550000D02*
X140780000Y-75820000D01*
X138800000Y-86050000D02*
X138800000Y-77550000D01*
X136650000Y-88450000D02*
X138800000Y-86050000D01*
X136650000Y-94700000D02*
X136650000Y-88450000D01*
X134460000Y-96890000D02*
X136650000Y-94700000D01*
X133500000Y-99430000D02*
X134970000Y-99430000D01*
X143320000Y-83580000D02*
X143320000Y-73300000D01*
X139050000Y-87850000D02*
X143320000Y-83580000D01*
X139050000Y-95350000D02*
X139050000Y-87850000D01*
X134970000Y-99430000D02*
X139050000Y-95350000D01*
X133500000Y-101970000D02*
X135480000Y-101970000D01*
X144900000Y-74260000D02*
X145860000Y-73300000D01*
X144900000Y-86150000D02*
X144900000Y-74260000D01*
X144150000Y-86900000D02*
X144900000Y-86150000D01*
X144150000Y-93300000D02*
X144150000Y-86900000D01*
X135480000Y-101970000D02*
X144150000Y-93300000D01*
X133500000Y-104510000D02*
X135540000Y-104510000D01*
X147500000Y-72400000D02*
X145860000Y-70760000D01*
X147500000Y-75600000D02*
X147500000Y-72400000D01*
X146400000Y-76700000D02*
X147500000Y-75600000D01*
X146400000Y-93650000D02*
X146400000Y-76700000D01*
X135540000Y-104510000D02*
X146400000Y-93650000D01*
X148740000Y-109590000D02*
X151690000Y-109590000D01*
X155850000Y-94270000D02*
X153450000Y-91870000D01*
X155850000Y-108350000D02*
X155850000Y-94270000D01*
X154850000Y-109350000D02*
X155850000Y-108350000D01*
X151930000Y-109350000D02*
X154850000Y-109350000D01*
X151690000Y-109590000D02*
X151930000Y-109350000D01*
X153550000Y-103000000D02*
X153550000Y-101050000D01*
X151930000Y-99430000D02*
X148740000Y-99430000D01*
X153550000Y-101050000D02*
X151930000Y-99430000D01*
M02*
