G04 #@! TF.FileFunction,Copper,L2,Bot,Signal*
%FSLAX46Y46*%
G04 Gerber Fmt 4.6, Leading zero omitted, Abs format (unit mm)*
G04 Created by KiCad (PCBNEW 4.0.7) date 10/31/17 13:14:18*
%MOMM*%
%LPD*%
G01*
G04 APERTURE LIST*
%ADD10C,0.150000*%
%ADD11R,1.727200X1.727200*%
%ADD12O,1.727200X1.727200*%
%ADD13R,1.700000X1.700000*%
%ADD14O,1.700000X1.700000*%
%ADD15R,1.600000X1.600000*%
%ADD16O,1.600000X1.600000*%
%ADD17C,0.889000*%
%ADD18C,0.304800*%
G04 APERTURE END LIST*
D10*
D11*
X135700000Y-73300000D03*
D12*
X135700000Y-70760000D03*
X138240000Y-73300000D03*
X138240000Y-70760000D03*
X140780000Y-73300000D03*
X140780000Y-70760000D03*
X143320000Y-73300000D03*
X143320000Y-70760000D03*
X145860000Y-73300000D03*
X145860000Y-70760000D03*
D13*
X153450000Y-84250000D03*
D14*
X153450000Y-86790000D03*
X153450000Y-89330000D03*
X153450000Y-91870000D03*
D13*
X153550000Y-103000000D03*
D14*
X153550000Y-105540000D03*
X153550000Y-108080000D03*
X153550000Y-110620000D03*
D15*
X133500000Y-81650000D03*
D16*
X148740000Y-114670000D03*
X133500000Y-84190000D03*
X148740000Y-112130000D03*
X133500000Y-86730000D03*
X148740000Y-109590000D03*
X133500000Y-89270000D03*
X148740000Y-107050000D03*
X133500000Y-91810000D03*
X148740000Y-104510000D03*
X133500000Y-94350000D03*
X148740000Y-101970000D03*
X133500000Y-96890000D03*
X148740000Y-99430000D03*
X133500000Y-99430000D03*
X148740000Y-96890000D03*
X133500000Y-101970000D03*
X148740000Y-94350000D03*
X133500000Y-104510000D03*
X148740000Y-91810000D03*
X133500000Y-107050000D03*
X148740000Y-89270000D03*
X133500000Y-109590000D03*
X148740000Y-86730000D03*
X133500000Y-112130000D03*
X148740000Y-84190000D03*
X133500000Y-114670000D03*
X148740000Y-81650000D03*
X133500000Y-117210000D03*
X148740000Y-117210000D03*
D17*
X140850000Y-94600000D03*
X140850000Y-89300000D03*
D18*
X133500000Y-89270000D02*
X140820000Y-89270000D01*
X147050000Y-108350000D02*
X153280000Y-108350000D01*
X146250000Y-107550000D02*
X147050000Y-108350000D01*
X146250000Y-99700000D02*
X146250000Y-107550000D01*
X140850000Y-94600000D02*
X146250000Y-99700000D01*
X140820000Y-89270000D02*
X140850000Y-89300000D01*
X153280000Y-108350000D02*
X153550000Y-108080000D01*
X148740000Y-89270000D02*
X142770000Y-89270000D01*
X135550000Y-76450000D02*
X135550000Y-73450000D01*
X141000000Y-81900000D02*
X135550000Y-76450000D01*
X141000000Y-87500000D02*
X141000000Y-81900000D01*
X142770000Y-89270000D02*
X141000000Y-87500000D01*
X135550000Y-73450000D02*
X135700000Y-73300000D01*
X132390185Y-118943072D02*
X134606928Y-118943072D01*
X135850000Y-110350000D02*
X135090000Y-109590000D01*
X135090000Y-109590000D02*
X133500000Y-109590000D01*
X135850000Y-117700000D02*
X135850000Y-110350000D01*
X134606928Y-118943072D02*
X135850000Y-117700000D01*
X132400000Y-118950000D02*
X132390185Y-118943072D01*
X132390185Y-118943072D02*
X131550000Y-118350000D01*
X131550000Y-118350000D02*
X131550000Y-112750000D01*
X131550000Y-112750000D02*
X130300000Y-111650000D01*
X130300000Y-111650000D02*
X130300000Y-75950000D01*
X130300000Y-75950000D02*
X131900000Y-74350000D01*
X131900000Y-74350000D02*
X131900000Y-69400000D01*
X131900000Y-69400000D02*
X133700000Y-67600000D01*
X133700000Y-67600000D02*
X139100000Y-67600000D01*
X139100000Y-67600000D02*
X140780000Y-69280000D01*
X140780000Y-70760000D02*
X140780000Y-69280000D01*
X143320000Y-70760000D02*
X143320000Y-68680000D01*
X136750000Y-107050000D02*
X133500000Y-107050000D01*
X139250000Y-109550000D02*
X136750000Y-107050000D01*
X139250000Y-111650000D02*
X139250000Y-109550000D01*
X146850000Y-119250000D02*
X139250000Y-111650000D01*
X149400000Y-119250000D02*
X146850000Y-119250000D01*
X150150000Y-118150000D02*
X149400000Y-119250000D01*
X150150000Y-116400000D02*
X150150000Y-118150000D01*
X152050000Y-114850000D02*
X150150000Y-116400000D01*
X154850000Y-114850000D02*
X152050000Y-114850000D01*
X155300000Y-113800000D02*
X154850000Y-114850000D01*
X155300000Y-81900000D02*
X155300000Y-113800000D01*
X148600000Y-74300000D02*
X155300000Y-81900000D01*
X148600000Y-68250000D02*
X148600000Y-74300000D01*
X148250000Y-67900000D02*
X148600000Y-68250000D01*
X144100000Y-67900000D02*
X148250000Y-67900000D01*
X143320000Y-68680000D02*
X144100000Y-67900000D01*
X148740000Y-84190000D02*
X153090000Y-84190000D01*
X153090000Y-84190000D02*
X153150000Y-84250000D01*
X153150000Y-86790000D02*
X151810000Y-86790000D01*
X141790000Y-91760000D02*
X133500000Y-91810000D01*
X143100000Y-90500000D02*
X141790000Y-91760000D01*
X150350000Y-90550000D02*
X143100000Y-90500000D01*
X150800000Y-90050000D02*
X150350000Y-90550000D01*
X150800000Y-87800000D02*
X150800000Y-90050000D01*
X151810000Y-86790000D02*
X150800000Y-87800000D01*
X138150000Y-93100000D02*
X137000000Y-94250000D01*
X153370000Y-89230000D02*
X151850000Y-90750000D01*
X151850000Y-90750000D02*
X151850000Y-91700000D01*
X151850000Y-91700000D02*
X150450000Y-93100000D01*
X150450000Y-93100000D02*
X138150000Y-93100000D01*
X153150000Y-89330000D02*
X153370000Y-89230000D01*
X137000000Y-94250000D02*
X133600000Y-94250000D01*
X133600000Y-94250000D02*
X133500000Y-94350000D01*
X153650000Y-105590000D02*
X151890000Y-105590000D01*
X150840000Y-96890000D02*
X148740000Y-96890000D01*
X151250000Y-97800000D02*
X150840000Y-96890000D01*
X151250000Y-104800000D02*
X151250000Y-97800000D01*
X151890000Y-105590000D02*
X151250000Y-104800000D01*
X153550000Y-110620000D02*
X153550000Y-112850000D01*
X150580000Y-114670000D02*
X148640000Y-114670000D01*
X151400000Y-113850000D02*
X150580000Y-114670000D01*
X152550000Y-113850000D02*
X151400000Y-113850000D01*
X153550000Y-112850000D02*
X152550000Y-113850000D01*
M02*
