M48
INCH,TZ
T1C0.025
T2C0.031
T3C0.039
T4C0.040
%
G90
G05
T1
X55453Y-35157
X55453Y-37244
T2
X52559Y-32146
X52559Y-33146
X52559Y-34146
X52559Y-35146
X52559Y-36146
X52559Y-37146
X52559Y-38146
X52559Y-39146
X52559Y-40146
X52559Y-41146
X52559Y-42146
X52559Y-43146
X52559Y-44146
X52559Y-45146
X52559Y-46146
X58559Y-32146
X58559Y-33146
X58559Y-34146
X58559Y-35146
X58559Y-36146
X58559Y-37146
X58559Y-38146
X58559Y-39146
X58559Y-40146
X58559Y-41146
X58559Y-42146
X58559Y-43146
X58559Y-44146
X58559Y-45146
X58559Y-46146
T3
X60413Y-33169
X60413Y-34169
X60413Y-35169
X60413Y-36169
X60453Y-40551
X60453Y-41551
X60453Y-42551
X60453Y-43551
T4
X53425Y-27858
X53425Y-28858
X54425Y-27858
X54425Y-28858
X55425Y-27858
X55425Y-28858
X56425Y-27858
X56425Y-28858
X57425Y-27858
X57425Y-28858
T0
M30
