G04 #@! TF.FileFunction,Legend,Top*
%FSLAX46Y46*%
G04 Gerber Fmt 4.6, Leading zero omitted, Abs format (unit mm)*
G04 Created by KiCad (PCBNEW 4.0.7) date 10/31/17 13:14:18*
%MOMM*%
%LPD*%
G01*
G04 APERTURE LIST*
%ADD10C,0.150000*%
%ADD11C,0.100000*%
%ADD12C,0.304800*%
%ADD13C,0.120000*%
G04 APERTURE END LIST*
D10*
D11*
X150754762Y-84003571D02*
X150730952Y-84027381D01*
X150659524Y-84051190D01*
X150611905Y-84051190D01*
X150540476Y-84027381D01*
X150492857Y-83979762D01*
X150469048Y-83932143D01*
X150445238Y-83836905D01*
X150445238Y-83765476D01*
X150469048Y-83670238D01*
X150492857Y-83622619D01*
X150540476Y-83575000D01*
X150611905Y-83551190D01*
X150659524Y-83551190D01*
X150730952Y-83575000D01*
X150754762Y-83598810D01*
X151064286Y-83551190D02*
X151159524Y-83551190D01*
X151207143Y-83575000D01*
X151254762Y-83622619D01*
X151278571Y-83717857D01*
X151278571Y-83884524D01*
X151254762Y-83979762D01*
X151207143Y-84027381D01*
X151159524Y-84051190D01*
X151064286Y-84051190D01*
X151016667Y-84027381D01*
X150969048Y-83979762D01*
X150945238Y-83884524D01*
X150945238Y-83717857D01*
X150969048Y-83622619D01*
X151016667Y-83575000D01*
X151064286Y-83551190D01*
X151492858Y-84051190D02*
X151492858Y-83551190D01*
X151659524Y-83908333D01*
X151826191Y-83551190D01*
X151826191Y-84051190D01*
X150445238Y-84758333D02*
X150683333Y-84758333D01*
X150397619Y-84901190D02*
X150564286Y-84401190D01*
X150730952Y-84901190D01*
X150445238Y-85727381D02*
X150516667Y-85751190D01*
X150635714Y-85751190D01*
X150683333Y-85727381D01*
X150707143Y-85703571D01*
X150730952Y-85655952D01*
X150730952Y-85608333D01*
X150707143Y-85560714D01*
X150683333Y-85536905D01*
X150635714Y-85513095D01*
X150540476Y-85489286D01*
X150492857Y-85465476D01*
X150469048Y-85441667D01*
X150445238Y-85394048D01*
X150445238Y-85346429D01*
X150469048Y-85298810D01*
X150492857Y-85275000D01*
X150540476Y-85251190D01*
X150659524Y-85251190D01*
X150730952Y-85275000D01*
X150897619Y-85251190D02*
X151016666Y-85751190D01*
X151111904Y-85394048D01*
X151207142Y-85751190D01*
X151326190Y-85251190D01*
X151516667Y-85751190D02*
X151516667Y-85251190D01*
X151516667Y-85489286D02*
X151802381Y-85489286D01*
X151802381Y-85751190D02*
X151802381Y-85251190D01*
X150635714Y-86339286D02*
X150707143Y-86363095D01*
X150730952Y-86386905D01*
X150754762Y-86434524D01*
X150754762Y-86505952D01*
X150730952Y-86553571D01*
X150707143Y-86577381D01*
X150659524Y-86601190D01*
X150469048Y-86601190D01*
X150469048Y-86101190D01*
X150635714Y-86101190D01*
X150683333Y-86125000D01*
X150707143Y-86148810D01*
X150730952Y-86196429D01*
X150730952Y-86244048D01*
X150707143Y-86291667D01*
X150683333Y-86315476D01*
X150635714Y-86339286D01*
X150469048Y-86339286D01*
X150592858Y-102527381D02*
X150664287Y-102551190D01*
X150783334Y-102551190D01*
X150830953Y-102527381D01*
X150854763Y-102503571D01*
X150878572Y-102455952D01*
X150878572Y-102408333D01*
X150854763Y-102360714D01*
X150830953Y-102336905D01*
X150783334Y-102313095D01*
X150688096Y-102289286D01*
X150640477Y-102265476D01*
X150616668Y-102241667D01*
X150592858Y-102194048D01*
X150592858Y-102146429D01*
X150616668Y-102098810D01*
X150640477Y-102075000D01*
X150688096Y-102051190D01*
X150807144Y-102051190D01*
X150878572Y-102075000D01*
X151092858Y-102551190D02*
X151092858Y-102051190D01*
X151211905Y-102051190D01*
X151283334Y-102075000D01*
X151330953Y-102122619D01*
X151354762Y-102170238D01*
X151378572Y-102265476D01*
X151378572Y-102336905D01*
X151354762Y-102432143D01*
X151330953Y-102479762D01*
X151283334Y-102527381D01*
X151211905Y-102551190D01*
X151092858Y-102551190D01*
X151569048Y-102408333D02*
X151807143Y-102408333D01*
X151521429Y-102551190D02*
X151688096Y-102051190D01*
X151854762Y-102551190D01*
X150604762Y-103377381D02*
X150676191Y-103401190D01*
X150795238Y-103401190D01*
X150842857Y-103377381D01*
X150866667Y-103353571D01*
X150890476Y-103305952D01*
X150890476Y-103258333D01*
X150866667Y-103210714D01*
X150842857Y-103186905D01*
X150795238Y-103163095D01*
X150700000Y-103139286D01*
X150652381Y-103115476D01*
X150628572Y-103091667D01*
X150604762Y-103044048D01*
X150604762Y-102996429D01*
X150628572Y-102948810D01*
X150652381Y-102925000D01*
X150700000Y-102901190D01*
X150819048Y-102901190D01*
X150890476Y-102925000D01*
X151390476Y-103353571D02*
X151366666Y-103377381D01*
X151295238Y-103401190D01*
X151247619Y-103401190D01*
X151176190Y-103377381D01*
X151128571Y-103329762D01*
X151104762Y-103282143D01*
X151080952Y-103186905D01*
X151080952Y-103115476D01*
X151104762Y-103020238D01*
X151128571Y-102972619D01*
X151176190Y-102925000D01*
X151247619Y-102901190D01*
X151295238Y-102901190D01*
X151366666Y-102925000D01*
X151390476Y-102948810D01*
X151842857Y-103401190D02*
X151604762Y-103401190D01*
X151604762Y-102901190D01*
X150819047Y-103775000D02*
X150771428Y-103751190D01*
X150700000Y-103751190D01*
X150628571Y-103775000D01*
X150580952Y-103822619D01*
X150557143Y-103870238D01*
X150533333Y-103965476D01*
X150533333Y-104036905D01*
X150557143Y-104132143D01*
X150580952Y-104179762D01*
X150628571Y-104227381D01*
X150700000Y-104251190D01*
X150747619Y-104251190D01*
X150819047Y-104227381D01*
X150842857Y-104203571D01*
X150842857Y-104036905D01*
X150747619Y-104036905D01*
X151057143Y-104251190D02*
X151057143Y-103751190D01*
X151342857Y-104251190D01*
X151342857Y-103751190D01*
X151580953Y-104251190D02*
X151580953Y-103751190D01*
X151700000Y-103751190D01*
X151771429Y-103775000D01*
X151819048Y-103822619D01*
X151842857Y-103870238D01*
X151866667Y-103965476D01*
X151866667Y-104036905D01*
X151842857Y-104132143D01*
X151819048Y-104179762D01*
X151771429Y-104227381D01*
X151700000Y-104251190D01*
X151580953Y-104251190D01*
X150580954Y-104601190D02*
X150890477Y-104601190D01*
X150723811Y-104791667D01*
X150795239Y-104791667D01*
X150842858Y-104815476D01*
X150866668Y-104839286D01*
X150890477Y-104886905D01*
X150890477Y-105005952D01*
X150866668Y-105053571D01*
X150842858Y-105077381D01*
X150795239Y-105101190D01*
X150652382Y-105101190D01*
X150604763Y-105077381D01*
X150580954Y-105053571D01*
X151033334Y-104601190D02*
X151200001Y-105101190D01*
X151366667Y-104601190D01*
X151485715Y-104601190D02*
X151795238Y-104601190D01*
X151628572Y-104791667D01*
X151700000Y-104791667D01*
X151747619Y-104815476D01*
X151771429Y-104839286D01*
X151795238Y-104886905D01*
X151795238Y-105005952D01*
X151771429Y-105053571D01*
X151747619Y-105077381D01*
X151700000Y-105101190D01*
X151557143Y-105101190D01*
X151509524Y-105077381D01*
X151485715Y-105053571D01*
D12*
X128588667Y-108876286D02*
X128588667Y-108150572D01*
X129169238Y-109021429D02*
X127137238Y-108513429D01*
X129169238Y-108005429D01*
X127814571Y-106844286D02*
X129846571Y-106844286D01*
X129072476Y-106844286D02*
X129169238Y-106989429D01*
X129169238Y-107279715D01*
X129072476Y-107424857D01*
X128975714Y-107497429D01*
X128782190Y-107570000D01*
X128201619Y-107570000D01*
X128008095Y-107497429D01*
X127911333Y-107424857D01*
X127814571Y-107279715D01*
X127814571Y-106989429D01*
X127911333Y-106844286D01*
X127814571Y-105465429D02*
X129169238Y-105465429D01*
X127814571Y-106118572D02*
X128878952Y-106118572D01*
X129072476Y-106046000D01*
X129169238Y-105900858D01*
X129169238Y-105683143D01*
X129072476Y-105538000D01*
X128975714Y-105465429D01*
X129169238Y-104086572D02*
X128104857Y-104086572D01*
X127911333Y-104159143D01*
X127814571Y-104304286D01*
X127814571Y-104594572D01*
X127911333Y-104739715D01*
X129072476Y-104086572D02*
X129169238Y-104231715D01*
X129169238Y-104594572D01*
X129072476Y-104739715D01*
X128878952Y-104812286D01*
X128685429Y-104812286D01*
X128491905Y-104739715D01*
X128395143Y-104594572D01*
X128395143Y-104231715D01*
X128298381Y-104086572D01*
X129072476Y-103433429D02*
X129169238Y-103215715D01*
X129169238Y-102852858D01*
X129072476Y-102707715D01*
X128975714Y-102635144D01*
X128782190Y-102562572D01*
X128588667Y-102562572D01*
X128395143Y-102635144D01*
X128298381Y-102707715D01*
X128201619Y-102852858D01*
X128104857Y-103143144D01*
X128008095Y-103288286D01*
X127911333Y-103360858D01*
X127717810Y-103433429D01*
X127524286Y-103433429D01*
X127330762Y-103360858D01*
X127234000Y-103288286D01*
X127137238Y-103143144D01*
X127137238Y-102780286D01*
X127234000Y-102562572D01*
X129169238Y-101909429D02*
X127137238Y-101909429D01*
X129169238Y-101256286D02*
X128104857Y-101256286D01*
X127911333Y-101328857D01*
X127814571Y-101474000D01*
X127814571Y-101691715D01*
X127911333Y-101836857D01*
X128008095Y-101909429D01*
X129169238Y-100530572D02*
X127814571Y-100530572D01*
X127137238Y-100530572D02*
X127234000Y-100603143D01*
X127330762Y-100530572D01*
X127234000Y-100458000D01*
X127137238Y-100530572D01*
X127330762Y-100530572D01*
X129072476Y-99224286D02*
X129169238Y-99369429D01*
X129169238Y-99659715D01*
X129072476Y-99804858D01*
X128878952Y-99877429D01*
X128104857Y-99877429D01*
X127911333Y-99804858D01*
X127814571Y-99659715D01*
X127814571Y-99369429D01*
X127911333Y-99224286D01*
X128104857Y-99151715D01*
X128298381Y-99151715D01*
X128491905Y-99877429D01*
X129169238Y-98280858D02*
X129072476Y-98426000D01*
X128878952Y-98498572D01*
X127137238Y-98498572D01*
X129169238Y-97047143D02*
X127137238Y-97047143D01*
X129072476Y-97047143D02*
X129169238Y-97192286D01*
X129169238Y-97482572D01*
X129072476Y-97627714D01*
X128975714Y-97700286D01*
X128782190Y-97772857D01*
X128201619Y-97772857D01*
X128008095Y-97700286D01*
X127911333Y-97627714D01*
X127814571Y-97482572D01*
X127814571Y-97192286D01*
X127911333Y-97047143D01*
X127814571Y-95305429D02*
X129169238Y-94942572D01*
X127814571Y-94579714D01*
X127137238Y-93708857D02*
X127137238Y-93563714D01*
X127234000Y-93418571D01*
X127330762Y-93346000D01*
X127524286Y-93273429D01*
X127911333Y-93200857D01*
X128395143Y-93200857D01*
X128782190Y-93273429D01*
X128975714Y-93346000D01*
X129072476Y-93418571D01*
X129169238Y-93563714D01*
X129169238Y-93708857D01*
X129072476Y-93854000D01*
X128975714Y-93926571D01*
X128782190Y-93999143D01*
X128395143Y-94071714D01*
X127911333Y-94071714D01*
X127524286Y-93999143D01*
X127330762Y-93926571D01*
X127234000Y-93854000D01*
X127137238Y-93708857D01*
X128975714Y-92547714D02*
X129072476Y-92475142D01*
X129169238Y-92547714D01*
X129072476Y-92620285D01*
X128975714Y-92547714D01*
X129169238Y-92547714D01*
X129169238Y-91023714D02*
X129169238Y-91894571D01*
X129169238Y-91459143D02*
X127137238Y-91459143D01*
X127427524Y-91604286D01*
X127621048Y-91749428D01*
X127717810Y-91894571D01*
X128725714Y-85359143D02*
X128822476Y-85431714D01*
X128919238Y-85649428D01*
X128919238Y-85794571D01*
X128822476Y-86012286D01*
X128628952Y-86157428D01*
X128435429Y-86230000D01*
X128048381Y-86302571D01*
X127758095Y-86302571D01*
X127371048Y-86230000D01*
X127177524Y-86157428D01*
X126984000Y-86012286D01*
X126887238Y-85794571D01*
X126887238Y-85649428D01*
X126984000Y-85431714D01*
X127080762Y-85359143D01*
X127564571Y-84052857D02*
X128919238Y-84052857D01*
X127564571Y-84706000D02*
X128628952Y-84706000D01*
X128822476Y-84633428D01*
X128919238Y-84488286D01*
X128919238Y-84270571D01*
X128822476Y-84125428D01*
X128725714Y-84052857D01*
X128919238Y-83327143D02*
X127564571Y-83327143D01*
X127951619Y-83327143D02*
X127758095Y-83254571D01*
X127661333Y-83182000D01*
X127564571Y-83036857D01*
X127564571Y-82891714D01*
X128822476Y-81803142D02*
X128919238Y-81948285D01*
X128919238Y-82238571D01*
X128822476Y-82383714D01*
X128628952Y-82456285D01*
X127854857Y-82456285D01*
X127661333Y-82383714D01*
X127564571Y-82238571D01*
X127564571Y-81948285D01*
X127661333Y-81803142D01*
X127854857Y-81730571D01*
X128048381Y-81730571D01*
X128241905Y-82456285D01*
X128919238Y-80424285D02*
X126887238Y-80424285D01*
X128822476Y-80424285D02*
X128919238Y-80569428D01*
X128919238Y-80859714D01*
X128822476Y-81004856D01*
X128725714Y-81077428D01*
X128532190Y-81149999D01*
X127951619Y-81149999D01*
X127758095Y-81077428D01*
X127661333Y-81004856D01*
X127564571Y-80859714D01*
X127564571Y-80569428D01*
X127661333Y-80424285D01*
X128725714Y-79698571D02*
X128822476Y-79625999D01*
X128919238Y-79698571D01*
X128822476Y-79771142D01*
X128725714Y-79698571D01*
X128919238Y-79698571D01*
X127854857Y-78464857D02*
X127951619Y-78247143D01*
X128048381Y-78174571D01*
X128241905Y-78102000D01*
X128532190Y-78102000D01*
X128725714Y-78174571D01*
X128822476Y-78247143D01*
X128919238Y-78392285D01*
X128919238Y-78972857D01*
X126887238Y-78972857D01*
X126887238Y-78464857D01*
X126984000Y-78319714D01*
X127080762Y-78247143D01*
X127274286Y-78174571D01*
X127467810Y-78174571D01*
X127661333Y-78247143D01*
X127758095Y-78319714D01*
X127854857Y-78464857D01*
X127854857Y-78972857D01*
X128919238Y-77448857D02*
X127564571Y-77448857D01*
X126887238Y-77448857D02*
X126984000Y-77521428D01*
X127080762Y-77448857D01*
X126984000Y-77376285D01*
X126887238Y-77448857D01*
X127080762Y-77448857D01*
X128919238Y-76505429D02*
X128822476Y-76650571D01*
X128725714Y-76723143D01*
X128532190Y-76795714D01*
X127951619Y-76795714D01*
X127758095Y-76723143D01*
X127661333Y-76650571D01*
X127564571Y-76505429D01*
X127564571Y-76287714D01*
X127661333Y-76142571D01*
X127758095Y-76070000D01*
X127951619Y-75997429D01*
X128532190Y-75997429D01*
X128725714Y-76070000D01*
X128822476Y-76142571D01*
X128919238Y-76287714D01*
X128919238Y-76505429D01*
D13*
X130370000Y-67230000D02*
X151190000Y-67230000D01*
X151190000Y-67230000D02*
X151190000Y-76830000D01*
X151190000Y-76830000D02*
X130370000Y-76830000D01*
X130370000Y-76830000D02*
X130370000Y-67230000D01*
X152120000Y-93200000D02*
X154780000Y-93200000D01*
X152120000Y-85520000D02*
X152120000Y-93200000D01*
X154780000Y-85520000D02*
X154780000Y-93200000D01*
X152120000Y-85520000D02*
X154780000Y-85520000D01*
X152120000Y-84250000D02*
X152120000Y-82920000D01*
X152120000Y-82920000D02*
X153450000Y-82920000D01*
X152220000Y-111950000D02*
X154880000Y-111950000D01*
X152220000Y-104270000D02*
X152220000Y-111950000D01*
X154880000Y-104270000D02*
X154880000Y-111950000D01*
X152220000Y-104270000D02*
X154880000Y-104270000D01*
X152220000Y-103000000D02*
X152220000Y-101670000D01*
X152220000Y-101670000D02*
X153550000Y-101670000D01*
X134770000Y-82920000D02*
X134770000Y-80380000D01*
X134770000Y-80380000D02*
X132100000Y-80380000D01*
X132100000Y-82920000D02*
X132100000Y-121150000D01*
X132100000Y-77710000D02*
X132100000Y-80380000D01*
X147470000Y-80380000D02*
X150140000Y-80380000D01*
X147470000Y-80380000D02*
X147470000Y-118480000D01*
X147470000Y-118480000D02*
X150140000Y-118480000D01*
X134770000Y-82920000D02*
X132100000Y-82920000D01*
X134770000Y-82920000D02*
X134770000Y-118480000D01*
X134770000Y-118480000D02*
X132100000Y-118480000D01*
X132100000Y-121150000D02*
X150140000Y-121150000D01*
X150140000Y-121150000D02*
X150140000Y-77710000D01*
X150140000Y-77710000D02*
X132100000Y-77710000D01*
D10*
X139565715Y-66037143D02*
X139518096Y-66084762D01*
X139375239Y-66132381D01*
X139280001Y-66132381D01*
X139137143Y-66084762D01*
X139041905Y-65989524D01*
X138994286Y-65894286D01*
X138946667Y-65703810D01*
X138946667Y-65560952D01*
X138994286Y-65370476D01*
X139041905Y-65275238D01*
X139137143Y-65180000D01*
X139280001Y-65132381D01*
X139375239Y-65132381D01*
X139518096Y-65180000D01*
X139565715Y-65227619D01*
X140184762Y-65132381D02*
X140375239Y-65132381D01*
X140470477Y-65180000D01*
X140565715Y-65275238D01*
X140613334Y-65465714D01*
X140613334Y-65799048D01*
X140565715Y-65989524D01*
X140470477Y-66084762D01*
X140375239Y-66132381D01*
X140184762Y-66132381D01*
X140089524Y-66084762D01*
X139994286Y-65989524D01*
X139946667Y-65799048D01*
X139946667Y-65465714D01*
X139994286Y-65275238D01*
X140089524Y-65180000D01*
X140184762Y-65132381D01*
X141041905Y-66132381D02*
X141041905Y-65132381D01*
X141613334Y-66132381D01*
X141613334Y-65132381D01*
X142613334Y-66132381D02*
X142041905Y-66132381D01*
X142327619Y-66132381D02*
X142327619Y-65132381D01*
X142232381Y-65275238D01*
X142137143Y-65370476D01*
X142041905Y-65418095D01*
D13*
X136005715Y-75472381D02*
X135434286Y-75472381D01*
X135720000Y-75472381D02*
X135720000Y-74472381D01*
X135624762Y-74615238D01*
X135529524Y-74710476D01*
X135434286Y-74758095D01*
D10*
X151085714Y-81928571D02*
X151419048Y-81928571D01*
X151561905Y-82452381D02*
X151085714Y-82452381D01*
X151085714Y-81452381D01*
X151561905Y-81452381D01*
X151990476Y-82452381D02*
X151990476Y-81452381D01*
X152561905Y-82452381D01*
X152561905Y-81452381D01*
X153609524Y-82357143D02*
X153561905Y-82404762D01*
X153419048Y-82452381D01*
X153323810Y-82452381D01*
X153180952Y-82404762D01*
X153085714Y-82309524D01*
X153038095Y-82214286D01*
X152990476Y-82023810D01*
X152990476Y-81880952D01*
X153038095Y-81690476D01*
X153085714Y-81595238D01*
X153180952Y-81500000D01*
X153323810Y-81452381D01*
X153419048Y-81452381D01*
X153561905Y-81500000D01*
X153609524Y-81547619D01*
X154561905Y-82452381D02*
X153990476Y-82452381D01*
X154276190Y-82452381D02*
X154276190Y-81452381D01*
X154180952Y-81595238D01*
X154085714Y-81690476D01*
X153990476Y-81738095D01*
X150871428Y-100152381D02*
X151061905Y-100152381D01*
X151157143Y-100200000D01*
X151252381Y-100295238D01*
X151300000Y-100485714D01*
X151300000Y-100819048D01*
X151252381Y-101009524D01*
X151157143Y-101104762D01*
X151061905Y-101152381D01*
X150871428Y-101152381D01*
X150776190Y-101104762D01*
X150680952Y-101009524D01*
X150633333Y-100819048D01*
X150633333Y-100485714D01*
X150680952Y-100295238D01*
X150776190Y-100200000D01*
X150871428Y-100152381D01*
X152204762Y-101152381D02*
X151728571Y-101152381D01*
X151728571Y-100152381D01*
X152538095Y-100628571D02*
X152871429Y-100628571D01*
X153014286Y-101152381D02*
X152538095Y-101152381D01*
X152538095Y-100152381D01*
X153014286Y-100152381D01*
X153442857Y-101152381D02*
X153442857Y-100152381D01*
X153680952Y-100152381D01*
X153823810Y-100200000D01*
X153919048Y-100295238D01*
X153966667Y-100390476D01*
X154014286Y-100580952D01*
X154014286Y-100723810D01*
X153966667Y-100914286D01*
X153919048Y-101009524D01*
X153823810Y-101104762D01*
X153680952Y-101152381D01*
X153442857Y-101152381D01*
X154966667Y-101152381D02*
X154395238Y-101152381D01*
X154680952Y-101152381D02*
X154680952Y-100152381D01*
X154585714Y-100295238D01*
X154490476Y-100390476D01*
X154395238Y-100438095D01*
M02*
