M48
INCH,TZ
T1C0.032
T2C0.040
%
G90
G05
T1
X59051Y-31501
X60051Y-31501
X61051Y-31501
X62051Y-31501
X62651Y-50501
X63051Y-31501
X63651Y-50501
X64051Y-31501
X64651Y-50501
X65051Y-31501
X65651Y-50501
X66051Y-31501
X66651Y-50501
X67651Y-31501
X67651Y-50501
X68651Y-31501
X69651Y-31501
X69651Y-50501
X70651Y-31501
X70651Y-50501
X71651Y-31501
X71651Y-50501
X72651Y-31501
X72651Y-50501
X73651Y-31501
X73651Y-50501
X74651Y-31501
X74651Y-50501
T2
X66250Y-39000
X66250Y-40000
X66250Y-41000
X66250Y-42000
X66250Y-43000
X67250Y-39000
X67250Y-40000
X67250Y-41000
X67250Y-42000
X67250Y-43000
T0
M30
