G04 #@! TF.FileFunction,Copper,L1,Top,Signal*
%FSLAX46Y46*%
G04 Gerber Fmt 4.6, Leading zero omitted, Abs format (unit mm)*
G04 Created by KiCad (PCBNEW 4.0.4-stable) date 07/11/17 10:57:04*
%MOMM*%
%LPD*%
G01*
G04 APERTURE LIST*
%ADD10C,0.150000*%
%ADD11O,1.524000X2.540000*%
%ADD12R,1.778000X1.778000*%
%ADD13C,1.778000*%
%ADD14C,0.304800*%
%ADD15C,0.254000*%
G04 APERTURE END LIST*
D10*
D11*
X189613540Y-128272540D03*
X187073540Y-128272540D03*
X184533540Y-128272540D03*
X176913540Y-128272540D03*
X179453540Y-128272540D03*
X181993540Y-128272540D03*
X171833540Y-128272540D03*
X169293540Y-128272540D03*
X166753540Y-128272540D03*
X161673540Y-128272540D03*
X159133540Y-128272540D03*
X189613540Y-80012540D03*
X187073540Y-80012540D03*
X184533540Y-80012540D03*
X181993540Y-80012540D03*
X179453540Y-80012540D03*
X176913540Y-80012540D03*
X174373540Y-80012540D03*
X171833540Y-80012540D03*
X167769540Y-80012540D03*
X165229540Y-80012540D03*
X162689540Y-80012540D03*
X160149540Y-80012540D03*
X157609540Y-80012540D03*
X155069540Y-80012540D03*
X152529540Y-80012540D03*
X149989540Y-80012540D03*
X164213540Y-128272540D03*
D12*
X168275000Y-99060000D03*
D13*
X170815000Y-99060000D03*
X168275000Y-101600000D03*
X170815000Y-101600000D03*
X168275000Y-104140000D03*
X170815000Y-104140000D03*
X168275000Y-106680000D03*
X170815000Y-106680000D03*
X168275000Y-109220000D03*
X170815000Y-109220000D03*
D14*
X168275000Y-99060000D02*
X164213540Y-103121460D01*
X164213540Y-103121460D02*
X164213540Y-128272540D01*
X170815000Y-104140000D02*
X172745400Y-102209600D01*
X172745400Y-102209600D02*
X172745400Y-89212420D01*
X172745400Y-89212420D02*
X165229540Y-81696560D01*
X165229540Y-80012540D02*
X165229540Y-81696560D01*
X170815000Y-106680000D02*
X173311820Y-104183180D01*
X173311820Y-104183180D02*
X173311820Y-87238840D01*
X173311820Y-87238840D02*
X167769540Y-81696560D01*
X167769540Y-80012540D02*
X167769540Y-81696560D01*
X162689540Y-80012540D02*
X162689540Y-81696560D01*
X170815000Y-101600000D02*
X172176440Y-100238560D01*
X172176440Y-100238560D02*
X172176440Y-91183460D01*
X172176440Y-91183460D02*
X162689540Y-81696560D01*
X170815000Y-92565220D02*
X160149540Y-81899760D01*
X160149540Y-81899760D02*
X160149540Y-80012540D01*
X170815000Y-99060000D02*
X170815000Y-92565220D01*
X170815000Y-109220000D02*
X173878240Y-106156760D01*
X173878240Y-106156760D02*
X173878240Y-83741260D01*
X173878240Y-83741260D02*
X171833540Y-81696560D01*
X171833540Y-80012540D02*
X171833540Y-81696560D01*
X168275000Y-101600000D02*
X166753540Y-103121460D01*
X166753540Y-103121460D02*
X166753540Y-128272540D01*
D15*
G36*
X170027600Y-97739200D02*
X169953940Y-97769680D01*
X169760900Y-97960180D01*
X169699940Y-97812860D01*
X169522140Y-97635060D01*
X169291000Y-97538540D01*
X169039540Y-97538540D01*
X167261540Y-97538540D01*
X167027860Y-97635060D01*
X166850060Y-97812860D01*
X166753540Y-98044000D01*
X166753540Y-98295460D01*
X166753540Y-99468940D01*
X163657280Y-102565200D01*
X163487100Y-102819200D01*
X163426140Y-103121460D01*
X163426140Y-126575820D01*
X163052760Y-126951740D01*
X162943540Y-127210820D01*
X162836860Y-126951740D01*
X162450780Y-126568200D01*
X161947860Y-126357380D01*
X161401760Y-126357380D01*
X160896300Y-126565660D01*
X160512760Y-126951740D01*
X160403540Y-127210820D01*
X160296860Y-126951740D01*
X159910780Y-126568200D01*
X159407860Y-126357380D01*
X158861760Y-126357380D01*
X158356300Y-126565660D01*
X157972760Y-126951740D01*
X157761940Y-127454660D01*
X157761940Y-128000760D01*
X157761940Y-129087880D01*
X157970220Y-129593340D01*
X158356300Y-129976880D01*
X158374080Y-129984500D01*
X147764500Y-129984500D01*
X147764500Y-78295500D01*
X149235160Y-78295500D01*
X149212300Y-78305660D01*
X148828760Y-78691740D01*
X148617940Y-79194660D01*
X148617940Y-79740760D01*
X148617940Y-80827880D01*
X148826220Y-81333340D01*
X149212300Y-81716880D01*
X149715220Y-81927700D01*
X150261320Y-81927700D01*
X150766780Y-81719420D01*
X151150320Y-81333340D01*
X151257000Y-81074260D01*
X151287480Y-81173320D01*
X151632920Y-81600040D01*
X152115520Y-81861660D01*
X152186640Y-81871820D01*
X152402540Y-81752440D01*
X152402540Y-80266540D01*
X152402540Y-80139540D01*
X152402540Y-79885540D01*
X152656540Y-79885540D01*
X152656540Y-80139540D01*
X152656540Y-80266540D01*
X152656540Y-81752440D01*
X152872440Y-81871820D01*
X152943560Y-81861660D01*
X153426160Y-81600040D01*
X153771600Y-81173320D01*
X153799540Y-81074260D01*
X153906220Y-81333340D01*
X154292300Y-81716880D01*
X154795220Y-81927700D01*
X155341320Y-81927700D01*
X155846780Y-81719420D01*
X156230320Y-81333340D01*
X156337000Y-81071720D01*
X156446220Y-81333340D01*
X156832300Y-81716880D01*
X157335220Y-81927700D01*
X157881320Y-81927700D01*
X158386780Y-81719420D01*
X158770320Y-81333340D01*
X158877000Y-81071720D01*
X158986220Y-81333340D01*
X159362140Y-81706720D01*
X159362140Y-81899760D01*
X159423100Y-82202020D01*
X159593280Y-82456020D01*
X170027600Y-92890340D01*
X170027600Y-97739200D01*
X170027600Y-97739200D01*
G37*
X170027600Y-97739200D02*
X169953940Y-97769680D01*
X169760900Y-97960180D01*
X169699940Y-97812860D01*
X169522140Y-97635060D01*
X169291000Y-97538540D01*
X169039540Y-97538540D01*
X167261540Y-97538540D01*
X167027860Y-97635060D01*
X166850060Y-97812860D01*
X166753540Y-98044000D01*
X166753540Y-98295460D01*
X166753540Y-99468940D01*
X163657280Y-102565200D01*
X163487100Y-102819200D01*
X163426140Y-103121460D01*
X163426140Y-126575820D01*
X163052760Y-126951740D01*
X162943540Y-127210820D01*
X162836860Y-126951740D01*
X162450780Y-126568200D01*
X161947860Y-126357380D01*
X161401760Y-126357380D01*
X160896300Y-126565660D01*
X160512760Y-126951740D01*
X160403540Y-127210820D01*
X160296860Y-126951740D01*
X159910780Y-126568200D01*
X159407860Y-126357380D01*
X158861760Y-126357380D01*
X158356300Y-126565660D01*
X157972760Y-126951740D01*
X157761940Y-127454660D01*
X157761940Y-128000760D01*
X157761940Y-129087880D01*
X157970220Y-129593340D01*
X158356300Y-129976880D01*
X158374080Y-129984500D01*
X147764500Y-129984500D01*
X147764500Y-78295500D01*
X149235160Y-78295500D01*
X149212300Y-78305660D01*
X148828760Y-78691740D01*
X148617940Y-79194660D01*
X148617940Y-79740760D01*
X148617940Y-80827880D01*
X148826220Y-81333340D01*
X149212300Y-81716880D01*
X149715220Y-81927700D01*
X150261320Y-81927700D01*
X150766780Y-81719420D01*
X151150320Y-81333340D01*
X151257000Y-81074260D01*
X151287480Y-81173320D01*
X151632920Y-81600040D01*
X152115520Y-81861660D01*
X152186640Y-81871820D01*
X152402540Y-81752440D01*
X152402540Y-80266540D01*
X152402540Y-80139540D01*
X152402540Y-79885540D01*
X152656540Y-79885540D01*
X152656540Y-80139540D01*
X152656540Y-80266540D01*
X152656540Y-81752440D01*
X152872440Y-81871820D01*
X152943560Y-81861660D01*
X153426160Y-81600040D01*
X153771600Y-81173320D01*
X153799540Y-81074260D01*
X153906220Y-81333340D01*
X154292300Y-81716880D01*
X154795220Y-81927700D01*
X155341320Y-81927700D01*
X155846780Y-81719420D01*
X156230320Y-81333340D01*
X156337000Y-81071720D01*
X156446220Y-81333340D01*
X156832300Y-81716880D01*
X157335220Y-81927700D01*
X157881320Y-81927700D01*
X158386780Y-81719420D01*
X158770320Y-81333340D01*
X158877000Y-81071720D01*
X158986220Y-81333340D01*
X159362140Y-81706720D01*
X159362140Y-81899760D01*
X159423100Y-82202020D01*
X159593280Y-82456020D01*
X170027600Y-92890340D01*
X170027600Y-97739200D01*
G36*
X191325500Y-129984500D02*
X190378080Y-129984500D01*
X190390780Y-129979420D01*
X190774320Y-129593340D01*
X190985140Y-129090420D01*
X190985140Y-128544320D01*
X190985140Y-127457200D01*
X190776860Y-126951740D01*
X190390780Y-126568200D01*
X189887860Y-126357380D01*
X189341760Y-126357380D01*
X188836300Y-126565660D01*
X188452760Y-126951740D01*
X188343540Y-127210820D01*
X188236860Y-126951740D01*
X187850780Y-126568200D01*
X187347860Y-126357380D01*
X186801760Y-126357380D01*
X186296300Y-126565660D01*
X185912760Y-126951740D01*
X185803540Y-127210820D01*
X185696860Y-126951740D01*
X185310780Y-126568200D01*
X184807860Y-126357380D01*
X184261760Y-126357380D01*
X183756300Y-126565660D01*
X183372760Y-126951740D01*
X183263540Y-127210820D01*
X183156860Y-126951740D01*
X182770780Y-126568200D01*
X182267860Y-126357380D01*
X181721760Y-126357380D01*
X181216300Y-126565660D01*
X180832760Y-126951740D01*
X180723540Y-127210820D01*
X180616860Y-126951740D01*
X180230780Y-126568200D01*
X179727860Y-126357380D01*
X179181760Y-126357380D01*
X178676300Y-126565660D01*
X178292760Y-126951740D01*
X178183540Y-127210820D01*
X178076860Y-126951740D01*
X177690780Y-126568200D01*
X177187860Y-126357380D01*
X176641760Y-126357380D01*
X176136300Y-126565660D01*
X175752760Y-126951740D01*
X175541940Y-127454660D01*
X175541940Y-128000760D01*
X175541940Y-129087880D01*
X175750220Y-129593340D01*
X176136300Y-129976880D01*
X176154080Y-129984500D01*
X172598080Y-129984500D01*
X172610780Y-129979420D01*
X172994320Y-129593340D01*
X173205140Y-129090420D01*
X173205140Y-128544320D01*
X173205140Y-127457200D01*
X172996860Y-126951740D01*
X172610780Y-126568200D01*
X172107860Y-126357380D01*
X171561760Y-126357380D01*
X171056300Y-126565660D01*
X170672760Y-126951740D01*
X170563540Y-127210820D01*
X170456860Y-126951740D01*
X170070780Y-126568200D01*
X169567860Y-126357380D01*
X169021760Y-126357380D01*
X168516300Y-126565660D01*
X168132760Y-126951740D01*
X168023540Y-127208280D01*
X167995600Y-127111760D01*
X167650160Y-126685040D01*
X167167560Y-126423420D01*
X167096440Y-126413260D01*
X166880540Y-126532640D01*
X166880540Y-128018540D01*
X166880540Y-128145540D01*
X166880540Y-128399540D01*
X166626540Y-128399540D01*
X166626540Y-128145540D01*
X166626540Y-128018540D01*
X166626540Y-126532640D01*
X166410640Y-126413260D01*
X166339520Y-126423420D01*
X165856920Y-126685040D01*
X165511480Y-127111760D01*
X165481000Y-127208280D01*
X165376860Y-126951740D01*
X165000940Y-126575820D01*
X165000940Y-103446580D01*
X166781480Y-101663500D01*
X166796720Y-101965760D01*
X166971980Y-102387400D01*
X167223440Y-102471220D01*
X168005760Y-101688900D01*
X168094660Y-101600000D01*
X168275000Y-101419660D01*
X168455340Y-101600000D01*
X168544240Y-101688900D01*
X169326560Y-102471220D01*
X169504360Y-102410260D01*
X169524680Y-102461060D01*
X169933620Y-102870000D01*
X169545000Y-103258620D01*
X169136060Y-102849680D01*
X169085260Y-102829360D01*
X169146220Y-102651560D01*
X168275000Y-101780340D01*
X167403780Y-102651560D01*
X167462200Y-102829360D01*
X167413940Y-102849680D01*
X166984680Y-103278940D01*
X166753540Y-103837740D01*
X166753540Y-104442260D01*
X166984680Y-105001060D01*
X167393620Y-105410000D01*
X166984680Y-105818940D01*
X166753540Y-106377740D01*
X166753540Y-106982260D01*
X166984680Y-107541060D01*
X167393620Y-107950000D01*
X166984680Y-108358940D01*
X166753540Y-108917740D01*
X166753540Y-109522260D01*
X166984680Y-110081060D01*
X167413940Y-110510320D01*
X167972740Y-110741460D01*
X168577260Y-110741460D01*
X169136060Y-110510320D01*
X169545000Y-110101380D01*
X169953940Y-110510320D01*
X170512740Y-110741460D01*
X171117260Y-110741460D01*
X171676060Y-110510320D01*
X172105320Y-110081060D01*
X172336460Y-109522260D01*
X172336460Y-108917740D01*
X172303440Y-108841540D01*
X174434500Y-106715560D01*
X174434500Y-106713020D01*
X174518320Y-106586020D01*
X174604680Y-106459020D01*
X174604680Y-106456480D01*
X174663100Y-106156760D01*
X174665640Y-106156760D01*
X174665640Y-83741260D01*
X174604680Y-83441540D01*
X174604680Y-83439000D01*
X174518320Y-83312000D01*
X174434500Y-83185000D01*
X174434500Y-83182460D01*
X172788580Y-81539080D01*
X172994320Y-81333340D01*
X173101000Y-81071720D01*
X173210220Y-81333340D01*
X173596300Y-81716880D01*
X174099220Y-81927700D01*
X174645320Y-81927700D01*
X175150780Y-81719420D01*
X175534320Y-81333340D01*
X175641000Y-81071720D01*
X175750220Y-81333340D01*
X176136300Y-81716880D01*
X176639220Y-81927700D01*
X177185320Y-81927700D01*
X177690780Y-81719420D01*
X178074320Y-81333340D01*
X178181000Y-81071720D01*
X178290220Y-81333340D01*
X178676300Y-81716880D01*
X179179220Y-81927700D01*
X179725320Y-81927700D01*
X180230780Y-81719420D01*
X180614320Y-81333340D01*
X180721000Y-81071720D01*
X180830220Y-81333340D01*
X181216300Y-81716880D01*
X181719220Y-81927700D01*
X182265320Y-81927700D01*
X182770780Y-81719420D01*
X183154320Y-81333340D01*
X183261000Y-81071720D01*
X183370220Y-81333340D01*
X183756300Y-81716880D01*
X184259220Y-81927700D01*
X184805320Y-81927700D01*
X185310780Y-81719420D01*
X185694320Y-81333340D01*
X185801000Y-81071720D01*
X185910220Y-81333340D01*
X186296300Y-81716880D01*
X186799220Y-81927700D01*
X187345320Y-81927700D01*
X187850780Y-81719420D01*
X188234320Y-81333340D01*
X188341000Y-81071720D01*
X188450220Y-81333340D01*
X188836300Y-81716880D01*
X189339220Y-81927700D01*
X189885320Y-81927700D01*
X190390780Y-81719420D01*
X190774320Y-81333340D01*
X190985140Y-80830420D01*
X190985140Y-80284320D01*
X190985140Y-79197200D01*
X190776860Y-78691740D01*
X190390780Y-78308200D01*
X190360300Y-78295500D01*
X191325500Y-78295500D01*
X191325500Y-129984500D01*
X191325500Y-129984500D01*
G37*
X191325500Y-129984500D02*
X190378080Y-129984500D01*
X190390780Y-129979420D01*
X190774320Y-129593340D01*
X190985140Y-129090420D01*
X190985140Y-128544320D01*
X190985140Y-127457200D01*
X190776860Y-126951740D01*
X190390780Y-126568200D01*
X189887860Y-126357380D01*
X189341760Y-126357380D01*
X188836300Y-126565660D01*
X188452760Y-126951740D01*
X188343540Y-127210820D01*
X188236860Y-126951740D01*
X187850780Y-126568200D01*
X187347860Y-126357380D01*
X186801760Y-126357380D01*
X186296300Y-126565660D01*
X185912760Y-126951740D01*
X185803540Y-127210820D01*
X185696860Y-126951740D01*
X185310780Y-126568200D01*
X184807860Y-126357380D01*
X184261760Y-126357380D01*
X183756300Y-126565660D01*
X183372760Y-126951740D01*
X183263540Y-127210820D01*
X183156860Y-126951740D01*
X182770780Y-126568200D01*
X182267860Y-126357380D01*
X181721760Y-126357380D01*
X181216300Y-126565660D01*
X180832760Y-126951740D01*
X180723540Y-127210820D01*
X180616860Y-126951740D01*
X180230780Y-126568200D01*
X179727860Y-126357380D01*
X179181760Y-126357380D01*
X178676300Y-126565660D01*
X178292760Y-126951740D01*
X178183540Y-127210820D01*
X178076860Y-126951740D01*
X177690780Y-126568200D01*
X177187860Y-126357380D01*
X176641760Y-126357380D01*
X176136300Y-126565660D01*
X175752760Y-126951740D01*
X175541940Y-127454660D01*
X175541940Y-128000760D01*
X175541940Y-129087880D01*
X175750220Y-129593340D01*
X176136300Y-129976880D01*
X176154080Y-129984500D01*
X172598080Y-129984500D01*
X172610780Y-129979420D01*
X172994320Y-129593340D01*
X173205140Y-129090420D01*
X173205140Y-128544320D01*
X173205140Y-127457200D01*
X172996860Y-126951740D01*
X172610780Y-126568200D01*
X172107860Y-126357380D01*
X171561760Y-126357380D01*
X171056300Y-126565660D01*
X170672760Y-126951740D01*
X170563540Y-127210820D01*
X170456860Y-126951740D01*
X170070780Y-126568200D01*
X169567860Y-126357380D01*
X169021760Y-126357380D01*
X168516300Y-126565660D01*
X168132760Y-126951740D01*
X168023540Y-127208280D01*
X167995600Y-127111760D01*
X167650160Y-126685040D01*
X167167560Y-126423420D01*
X167096440Y-126413260D01*
X166880540Y-126532640D01*
X166880540Y-128018540D01*
X166880540Y-128145540D01*
X166880540Y-128399540D01*
X166626540Y-128399540D01*
X166626540Y-128145540D01*
X166626540Y-128018540D01*
X166626540Y-126532640D01*
X166410640Y-126413260D01*
X166339520Y-126423420D01*
X165856920Y-126685040D01*
X165511480Y-127111760D01*
X165481000Y-127208280D01*
X165376860Y-126951740D01*
X165000940Y-126575820D01*
X165000940Y-103446580D01*
X166781480Y-101663500D01*
X166796720Y-101965760D01*
X166971980Y-102387400D01*
X167223440Y-102471220D01*
X168005760Y-101688900D01*
X168094660Y-101600000D01*
X168275000Y-101419660D01*
X168455340Y-101600000D01*
X168544240Y-101688900D01*
X169326560Y-102471220D01*
X169504360Y-102410260D01*
X169524680Y-102461060D01*
X169933620Y-102870000D01*
X169545000Y-103258620D01*
X169136060Y-102849680D01*
X169085260Y-102829360D01*
X169146220Y-102651560D01*
X168275000Y-101780340D01*
X167403780Y-102651560D01*
X167462200Y-102829360D01*
X167413940Y-102849680D01*
X166984680Y-103278940D01*
X166753540Y-103837740D01*
X166753540Y-104442260D01*
X166984680Y-105001060D01*
X167393620Y-105410000D01*
X166984680Y-105818940D01*
X166753540Y-106377740D01*
X166753540Y-106982260D01*
X166984680Y-107541060D01*
X167393620Y-107950000D01*
X166984680Y-108358940D01*
X166753540Y-108917740D01*
X166753540Y-109522260D01*
X166984680Y-110081060D01*
X167413940Y-110510320D01*
X167972740Y-110741460D01*
X168577260Y-110741460D01*
X169136060Y-110510320D01*
X169545000Y-110101380D01*
X169953940Y-110510320D01*
X170512740Y-110741460D01*
X171117260Y-110741460D01*
X171676060Y-110510320D01*
X172105320Y-110081060D01*
X172336460Y-109522260D01*
X172336460Y-108917740D01*
X172303440Y-108841540D01*
X174434500Y-106715560D01*
X174434500Y-106713020D01*
X174518320Y-106586020D01*
X174604680Y-106459020D01*
X174604680Y-106456480D01*
X174663100Y-106156760D01*
X174665640Y-106156760D01*
X174665640Y-83741260D01*
X174604680Y-83441540D01*
X174604680Y-83439000D01*
X174518320Y-83312000D01*
X174434500Y-83185000D01*
X174434500Y-83182460D01*
X172788580Y-81539080D01*
X172994320Y-81333340D01*
X173101000Y-81071720D01*
X173210220Y-81333340D01*
X173596300Y-81716880D01*
X174099220Y-81927700D01*
X174645320Y-81927700D01*
X175150780Y-81719420D01*
X175534320Y-81333340D01*
X175641000Y-81071720D01*
X175750220Y-81333340D01*
X176136300Y-81716880D01*
X176639220Y-81927700D01*
X177185320Y-81927700D01*
X177690780Y-81719420D01*
X178074320Y-81333340D01*
X178181000Y-81071720D01*
X178290220Y-81333340D01*
X178676300Y-81716880D01*
X179179220Y-81927700D01*
X179725320Y-81927700D01*
X180230780Y-81719420D01*
X180614320Y-81333340D01*
X180721000Y-81071720D01*
X180830220Y-81333340D01*
X181216300Y-81716880D01*
X181719220Y-81927700D01*
X182265320Y-81927700D01*
X182770780Y-81719420D01*
X183154320Y-81333340D01*
X183261000Y-81071720D01*
X183370220Y-81333340D01*
X183756300Y-81716880D01*
X184259220Y-81927700D01*
X184805320Y-81927700D01*
X185310780Y-81719420D01*
X185694320Y-81333340D01*
X185801000Y-81071720D01*
X185910220Y-81333340D01*
X186296300Y-81716880D01*
X186799220Y-81927700D01*
X187345320Y-81927700D01*
X187850780Y-81719420D01*
X188234320Y-81333340D01*
X188341000Y-81071720D01*
X188450220Y-81333340D01*
X188836300Y-81716880D01*
X189339220Y-81927700D01*
X189885320Y-81927700D01*
X190390780Y-81719420D01*
X190774320Y-81333340D01*
X190985140Y-80830420D01*
X190985140Y-80284320D01*
X190985140Y-79197200D01*
X190776860Y-78691740D01*
X190390780Y-78308200D01*
X190360300Y-78295500D01*
X191325500Y-78295500D01*
X191325500Y-129984500D01*
M02*
