G04 #@! TF.FileFunction,Legend,Top*
%FSLAX46Y46*%
G04 Gerber Fmt 4.6, Leading zero omitted, Abs format (unit mm)*
G04 Created by KiCad (PCBNEW 4.0.4-stable) date 06/20/17 10:55:23*
%MOMM*%
%LPD*%
G01*
G04 APERTURE LIST*
%ADD10C,0.150000*%
%ADD11C,0.200660*%
%ADD12C,0.304800*%
%ADD13C,0.381000*%
%ADD14C,0.127000*%
%ADD15C,0.248920*%
%ADD16C,0.114300*%
G04 APERTURE END LIST*
D10*
D11*
X140913757Y-66730517D02*
X141056723Y-66778172D01*
X141104378Y-66825828D01*
X141152033Y-66921138D01*
X141152033Y-67064104D01*
X141104378Y-67159414D01*
X141056723Y-67207070D01*
X140961412Y-67254725D01*
X140580170Y-67254725D01*
X140580170Y-66253965D01*
X140913757Y-66253965D01*
X141009067Y-66301620D01*
X141056723Y-66349275D01*
X141104378Y-66444586D01*
X141104378Y-66539896D01*
X141056723Y-66635207D01*
X141009067Y-66682862D01*
X140913757Y-66730517D01*
X140580170Y-66730517D01*
X141723896Y-67254725D02*
X141628585Y-67207070D01*
X141580930Y-67111759D01*
X141580930Y-66253965D01*
X142534035Y-66587551D02*
X142534035Y-67254725D01*
X142105138Y-66587551D02*
X142105138Y-67111759D01*
X142152793Y-67207070D01*
X142248104Y-67254725D01*
X142391070Y-67254725D01*
X142486380Y-67207070D01*
X142534035Y-67159414D01*
X143391830Y-67207070D02*
X143296520Y-67254725D01*
X143105899Y-67254725D01*
X143010588Y-67207070D01*
X142962933Y-67111759D01*
X142962933Y-66730517D01*
X143010588Y-66635207D01*
X143105899Y-66587551D01*
X143296520Y-66587551D01*
X143391830Y-66635207D01*
X143439485Y-66730517D01*
X143439485Y-66825828D01*
X142962933Y-66921138D01*
X141135826Y-63507620D02*
X141040515Y-63459965D01*
X140897550Y-63459965D01*
X140754584Y-63507620D01*
X140659273Y-63602930D01*
X140611618Y-63698241D01*
X140563963Y-63888862D01*
X140563963Y-64031828D01*
X140611618Y-64222449D01*
X140659273Y-64317759D01*
X140754584Y-64413070D01*
X140897550Y-64460725D01*
X140992860Y-64460725D01*
X141135826Y-64413070D01*
X141183481Y-64365414D01*
X141183481Y-64031828D01*
X140992860Y-64031828D01*
X141612378Y-64460725D02*
X141612378Y-63793551D01*
X141612378Y-63984172D02*
X141660033Y-63888862D01*
X141707689Y-63841207D01*
X141802999Y-63793551D01*
X141898310Y-63793551D01*
X142613138Y-64413070D02*
X142517828Y-64460725D01*
X142327207Y-64460725D01*
X142231896Y-64413070D01*
X142184241Y-64317759D01*
X142184241Y-63936517D01*
X142231896Y-63841207D01*
X142327207Y-63793551D01*
X142517828Y-63793551D01*
X142613138Y-63841207D01*
X142660793Y-63936517D01*
X142660793Y-64031828D01*
X142184241Y-64127138D01*
X143470932Y-64413070D02*
X143375622Y-64460725D01*
X143185001Y-64460725D01*
X143089690Y-64413070D01*
X143042035Y-64317759D01*
X143042035Y-63936517D01*
X143089690Y-63841207D01*
X143185001Y-63793551D01*
X143375622Y-63793551D01*
X143470932Y-63841207D01*
X143518587Y-63936517D01*
X143518587Y-64031828D01*
X143042035Y-64127138D01*
X143947484Y-63793551D02*
X143947484Y-64460725D01*
X143947484Y-63888862D02*
X143995139Y-63841207D01*
X144090450Y-63793551D01*
X144233416Y-63793551D01*
X144328726Y-63841207D01*
X144376381Y-63936517D01*
X144376381Y-64460725D01*
X141160137Y-61920725D02*
X140826550Y-61444172D01*
X140588274Y-61920725D02*
X140588274Y-60919965D01*
X140969516Y-60919965D01*
X141064827Y-60967620D01*
X141112482Y-61015275D01*
X141160137Y-61110586D01*
X141160137Y-61253551D01*
X141112482Y-61348862D01*
X141064827Y-61396517D01*
X140969516Y-61444172D01*
X140588274Y-61444172D01*
X141970276Y-61873070D02*
X141874966Y-61920725D01*
X141684345Y-61920725D01*
X141589034Y-61873070D01*
X141541379Y-61777759D01*
X141541379Y-61396517D01*
X141589034Y-61301207D01*
X141684345Y-61253551D01*
X141874966Y-61253551D01*
X141970276Y-61301207D01*
X142017931Y-61396517D01*
X142017931Y-61491828D01*
X141541379Y-61587138D01*
X142875725Y-61920725D02*
X142875725Y-60919965D01*
X142875725Y-61873070D02*
X142780415Y-61920725D01*
X142589794Y-61920725D01*
X142494483Y-61873070D01*
X142446828Y-61825414D01*
X142399173Y-61730104D01*
X142399173Y-61444172D01*
X142446828Y-61348862D01*
X142494483Y-61301207D01*
X142589794Y-61253551D01*
X142780415Y-61253551D01*
X142875725Y-61301207D01*
X141223517Y-58427620D02*
X141128206Y-58379965D01*
X140985241Y-58379965D01*
X140842275Y-58427620D01*
X140746964Y-58522930D01*
X140699309Y-58618241D01*
X140651654Y-58808862D01*
X140651654Y-58951828D01*
X140699309Y-59142449D01*
X140746964Y-59237759D01*
X140842275Y-59333070D01*
X140985241Y-59380725D01*
X141080551Y-59380725D01*
X141223517Y-59333070D01*
X141271172Y-59285414D01*
X141271172Y-58951828D01*
X141080551Y-58951828D01*
X141700069Y-59380725D02*
X141700069Y-58379965D01*
X142271932Y-59380725D01*
X142271932Y-58379965D01*
X142748484Y-59380725D02*
X142748484Y-58379965D01*
X142986760Y-58379965D01*
X143129726Y-58427620D01*
X143225037Y-58522930D01*
X143272692Y-58618241D01*
X143320347Y-58808862D01*
X143320347Y-58951828D01*
X143272692Y-59142449D01*
X143225037Y-59237759D01*
X143129726Y-59333070D01*
X142986760Y-59380725D01*
X142748484Y-59380725D01*
D12*
X133204856Y-74639714D02*
X133132285Y-74736476D01*
X132914571Y-74833238D01*
X132769428Y-74833238D01*
X132551713Y-74736476D01*
X132406571Y-74542952D01*
X132333999Y-74349429D01*
X132261428Y-73962381D01*
X132261428Y-73672095D01*
X132333999Y-73285048D01*
X132406571Y-73091524D01*
X132551713Y-72898000D01*
X132769428Y-72801238D01*
X132914571Y-72801238D01*
X133132285Y-72898000D01*
X133204856Y-72994762D01*
X134075713Y-74833238D02*
X133930571Y-74736476D01*
X133857999Y-74639714D01*
X133785428Y-74446190D01*
X133785428Y-73865619D01*
X133857999Y-73672095D01*
X133930571Y-73575333D01*
X134075713Y-73478571D01*
X134293428Y-73478571D01*
X134438571Y-73575333D01*
X134511142Y-73672095D01*
X134583713Y-73865619D01*
X134583713Y-74446190D01*
X134511142Y-74639714D01*
X134438571Y-74736476D01*
X134293428Y-74833238D01*
X134075713Y-74833238D01*
X135454570Y-74833238D02*
X135309428Y-74736476D01*
X135236856Y-74542952D01*
X135236856Y-72801238D01*
X136252856Y-74833238D02*
X136107714Y-74736476D01*
X136035142Y-74639714D01*
X135962571Y-74446190D01*
X135962571Y-73865619D01*
X136035142Y-73672095D01*
X136107714Y-73575333D01*
X136252856Y-73478571D01*
X136470571Y-73478571D01*
X136615714Y-73575333D01*
X136688285Y-73672095D01*
X136760856Y-73865619D01*
X136760856Y-74446190D01*
X136688285Y-74639714D01*
X136615714Y-74736476D01*
X136470571Y-74833238D01*
X136252856Y-74833238D01*
X137413999Y-74833238D02*
X137413999Y-73478571D01*
X137413999Y-73865619D02*
X137486571Y-73672095D01*
X137559142Y-73575333D01*
X137704285Y-73478571D01*
X137849428Y-73478571D01*
X138357428Y-74833238D02*
X138357428Y-73478571D01*
X138357428Y-72801238D02*
X138284857Y-72898000D01*
X138357428Y-72994762D01*
X138430000Y-72898000D01*
X138357428Y-72801238D01*
X138357428Y-72994762D01*
X139083142Y-74833238D02*
X139083142Y-73478571D01*
X139083142Y-73672095D02*
X139155714Y-73575333D01*
X139300856Y-73478571D01*
X139518571Y-73478571D01*
X139663714Y-73575333D01*
X139736285Y-73768857D01*
X139736285Y-74833238D01*
X139736285Y-73768857D02*
X139808856Y-73575333D01*
X139953999Y-73478571D01*
X140171714Y-73478571D01*
X140316856Y-73575333D01*
X140389428Y-73768857D01*
X140389428Y-74833238D01*
X141695714Y-74736476D02*
X141550571Y-74833238D01*
X141260285Y-74833238D01*
X141115142Y-74736476D01*
X141042571Y-74542952D01*
X141042571Y-73768857D01*
X141115142Y-73575333D01*
X141260285Y-73478571D01*
X141550571Y-73478571D01*
X141695714Y-73575333D01*
X141768285Y-73768857D01*
X141768285Y-73962381D01*
X141042571Y-74155905D01*
X142203714Y-73478571D02*
X142784285Y-73478571D01*
X142421428Y-72801238D02*
X142421428Y-74542952D01*
X142494000Y-74736476D01*
X142639142Y-74833238D01*
X142784285Y-74833238D01*
X143872857Y-74736476D02*
X143727714Y-74833238D01*
X143437428Y-74833238D01*
X143292285Y-74736476D01*
X143219714Y-74542952D01*
X143219714Y-73768857D01*
X143292285Y-73575333D01*
X143437428Y-73478571D01*
X143727714Y-73478571D01*
X143872857Y-73575333D01*
X143945428Y-73768857D01*
X143945428Y-73962381D01*
X143219714Y-74155905D01*
X144598571Y-74833238D02*
X144598571Y-73478571D01*
X144598571Y-73865619D02*
X144671143Y-73672095D01*
X144743714Y-73575333D01*
X144888857Y-73478571D01*
X145034000Y-73478571D01*
X146630572Y-74736476D02*
X146848286Y-74833238D01*
X147211143Y-74833238D01*
X147356286Y-74736476D01*
X147428857Y-74639714D01*
X147501429Y-74446190D01*
X147501429Y-74252667D01*
X147428857Y-74059143D01*
X147356286Y-73962381D01*
X147211143Y-73865619D01*
X146920857Y-73768857D01*
X146775715Y-73672095D01*
X146703143Y-73575333D01*
X146630572Y-73381810D01*
X146630572Y-73188286D01*
X146703143Y-72994762D01*
X146775715Y-72898000D01*
X146920857Y-72801238D01*
X147283715Y-72801238D01*
X147501429Y-72898000D01*
X148735144Y-74736476D02*
X148590001Y-74833238D01*
X148299715Y-74833238D01*
X148154572Y-74736476D01*
X148082001Y-74542952D01*
X148082001Y-73768857D01*
X148154572Y-73575333D01*
X148299715Y-73478571D01*
X148590001Y-73478571D01*
X148735144Y-73575333D01*
X148807715Y-73768857D01*
X148807715Y-73962381D01*
X148082001Y-74155905D01*
X149460858Y-73478571D02*
X149460858Y-74833238D01*
X149460858Y-73672095D02*
X149533430Y-73575333D01*
X149678572Y-73478571D01*
X149896287Y-73478571D01*
X150041430Y-73575333D01*
X150114001Y-73768857D01*
X150114001Y-74833238D01*
X150767144Y-74736476D02*
X150912287Y-74833238D01*
X151202572Y-74833238D01*
X151347715Y-74736476D01*
X151420287Y-74542952D01*
X151420287Y-74446190D01*
X151347715Y-74252667D01*
X151202572Y-74155905D01*
X150984858Y-74155905D01*
X150839715Y-74059143D01*
X150767144Y-73865619D01*
X150767144Y-73768857D01*
X150839715Y-73575333D01*
X150984858Y-73478571D01*
X151202572Y-73478571D01*
X151347715Y-73575333D01*
X152291143Y-74833238D02*
X152146001Y-74736476D01*
X152073429Y-74639714D01*
X152000858Y-74446190D01*
X152000858Y-73865619D01*
X152073429Y-73672095D01*
X152146001Y-73575333D01*
X152291143Y-73478571D01*
X152508858Y-73478571D01*
X152654001Y-73575333D01*
X152726572Y-73672095D01*
X152799143Y-73865619D01*
X152799143Y-74446190D01*
X152726572Y-74639714D01*
X152654001Y-74736476D01*
X152508858Y-74833238D01*
X152291143Y-74833238D01*
X153452286Y-74833238D02*
X153452286Y-73478571D01*
X153452286Y-73865619D02*
X153524858Y-73672095D01*
X153597429Y-73575333D01*
X153742572Y-73478571D01*
X153887715Y-73478571D01*
X156064858Y-73768857D02*
X156282572Y-73865619D01*
X156355144Y-73962381D01*
X156427715Y-74155905D01*
X156427715Y-74446190D01*
X156355144Y-74639714D01*
X156282572Y-74736476D01*
X156137430Y-74833238D01*
X155556858Y-74833238D01*
X155556858Y-72801238D01*
X156064858Y-72801238D01*
X156210001Y-72898000D01*
X156282572Y-72994762D01*
X156355144Y-73188286D01*
X156355144Y-73381810D01*
X156282572Y-73575333D01*
X156210001Y-73672095D01*
X156064858Y-73768857D01*
X155556858Y-73768857D01*
X157298572Y-74833238D02*
X157153430Y-74736476D01*
X157080858Y-74639714D01*
X157008287Y-74446190D01*
X157008287Y-73865619D01*
X157080858Y-73672095D01*
X157153430Y-73575333D01*
X157298572Y-73478571D01*
X157516287Y-73478571D01*
X157661430Y-73575333D01*
X157734001Y-73672095D01*
X157806572Y-73865619D01*
X157806572Y-74446190D01*
X157734001Y-74639714D01*
X157661430Y-74736476D01*
X157516287Y-74833238D01*
X157298572Y-74833238D01*
X159112858Y-74833238D02*
X159112858Y-73768857D01*
X159040287Y-73575333D01*
X158895144Y-73478571D01*
X158604858Y-73478571D01*
X158459715Y-73575333D01*
X159112858Y-74736476D02*
X158967715Y-74833238D01*
X158604858Y-74833238D01*
X158459715Y-74736476D01*
X158387144Y-74542952D01*
X158387144Y-74349429D01*
X158459715Y-74155905D01*
X158604858Y-74059143D01*
X158967715Y-74059143D01*
X159112858Y-73962381D01*
X159838572Y-74833238D02*
X159838572Y-73478571D01*
X159838572Y-73865619D02*
X159911144Y-73672095D01*
X159983715Y-73575333D01*
X160128858Y-73478571D01*
X160274001Y-73478571D01*
X161435144Y-74833238D02*
X161435144Y-72801238D01*
X161435144Y-74736476D02*
X161290001Y-74833238D01*
X160999715Y-74833238D01*
X160854573Y-74736476D01*
X160782001Y-74639714D01*
X160709430Y-74446190D01*
X160709430Y-73865619D01*
X160782001Y-73672095D01*
X160854573Y-73575333D01*
X160999715Y-73478571D01*
X161290001Y-73478571D01*
X161435144Y-73575333D01*
X163176858Y-73478571D02*
X163539715Y-74833238D01*
X163902573Y-73478571D01*
X164410573Y-72994762D02*
X164483144Y-72898000D01*
X164628287Y-72801238D01*
X164991144Y-72801238D01*
X165136287Y-72898000D01*
X165208858Y-72994762D01*
X165281430Y-73188286D01*
X165281430Y-73381810D01*
X165208858Y-73672095D01*
X164338001Y-74833238D01*
X165281430Y-74833238D01*
X165934573Y-74639714D02*
X166007145Y-74736476D01*
X165934573Y-74833238D01*
X165862002Y-74736476D01*
X165934573Y-74639714D01*
X165934573Y-74833238D01*
X167458573Y-74833238D02*
X166587716Y-74833238D01*
X167023144Y-74833238D02*
X167023144Y-72801238D01*
X166878001Y-73091524D01*
X166732859Y-73285048D01*
X166587716Y-73381810D01*
D13*
X126746000Y-68453000D02*
X126746000Y-57277000D01*
X126746000Y-57277000D02*
X139954000Y-57277000D01*
X139954000Y-57277000D02*
X139954000Y-68453000D01*
X139954000Y-68453000D02*
X126746000Y-68453000D01*
X152859740Y-65498980D02*
X147360640Y-65498980D01*
X147360640Y-65498980D02*
X146860260Y-65001140D01*
X146860260Y-65001140D02*
X146860260Y-61501020D01*
X146860260Y-61501020D02*
X152859740Y-61501020D01*
X152859740Y-61501020D02*
X152859740Y-65498980D01*
D14*
X160782000Y-53340000D02*
X163068000Y-53340000D01*
X163068000Y-53340000D02*
X163068000Y-54610000D01*
X163068000Y-54610000D02*
X160782000Y-54610000D01*
X160782000Y-54610000D02*
X160782000Y-53340000D01*
D12*
X132225143Y-70539429D02*
X132225143Y-69015429D01*
X132805715Y-69015429D01*
X132950857Y-69088000D01*
X133023429Y-69160571D01*
X133096000Y-69305714D01*
X133096000Y-69523429D01*
X133023429Y-69668571D01*
X132950857Y-69741143D01*
X132805715Y-69813714D01*
X132225143Y-69813714D01*
X133676572Y-69160571D02*
X133749143Y-69088000D01*
X133894286Y-69015429D01*
X134257143Y-69015429D01*
X134402286Y-69088000D01*
X134474857Y-69160571D01*
X134547429Y-69305714D01*
X134547429Y-69450857D01*
X134474857Y-69668571D01*
X133604000Y-70539429D01*
X134547429Y-70539429D01*
D15*
X148439777Y-57565109D02*
X148439777Y-58798823D01*
X148512349Y-58943966D01*
X148584920Y-59016537D01*
X148730063Y-59089109D01*
X149020349Y-59089109D01*
X149165491Y-59016537D01*
X149238063Y-58943966D01*
X149310634Y-58798823D01*
X149310634Y-57565109D01*
X150834634Y-59089109D02*
X149963777Y-59089109D01*
X150399205Y-59089109D02*
X150399205Y-57565109D01*
X150254062Y-57782823D01*
X150108920Y-57927966D01*
X149963777Y-58000537D01*
D16*
X159435800Y-54102000D02*
X159414029Y-54135867D01*
X159348715Y-54169733D01*
X159305172Y-54169733D01*
X159239857Y-54135867D01*
X159196315Y-54068133D01*
X159174543Y-54000400D01*
X159152772Y-53864933D01*
X159152772Y-53763333D01*
X159174543Y-53627867D01*
X159196315Y-53560133D01*
X159239857Y-53492400D01*
X159305172Y-53458533D01*
X159348715Y-53458533D01*
X159414029Y-53492400D01*
X159435800Y-53526267D01*
X159871229Y-54169733D02*
X159609972Y-54169733D01*
X159740600Y-54169733D02*
X159740600Y-53458533D01*
X159697057Y-53560133D01*
X159653515Y-53627867D01*
X159609972Y-53661733D01*
X163920714Y-53458533D02*
X163964257Y-53458533D01*
X164007800Y-53492400D01*
X164029571Y-53526267D01*
X164051342Y-53594000D01*
X164073114Y-53729467D01*
X164073114Y-53898800D01*
X164051342Y-54034267D01*
X164029571Y-54102000D01*
X164007800Y-54135867D01*
X163964257Y-54169733D01*
X163920714Y-54169733D01*
X163877171Y-54135867D01*
X163855400Y-54102000D01*
X163833628Y-54034267D01*
X163811857Y-53898800D01*
X163811857Y-53729467D01*
X163833628Y-53594000D01*
X163855400Y-53526267D01*
X163877171Y-53492400D01*
X163920714Y-53458533D01*
X164269057Y-54102000D02*
X164290829Y-54135867D01*
X164269057Y-54169733D01*
X164247286Y-54135867D01*
X164269057Y-54102000D01*
X164269057Y-54169733D01*
X164726257Y-54169733D02*
X164465000Y-54169733D01*
X164595628Y-54169733D02*
X164595628Y-53458533D01*
X164552085Y-53560133D01*
X164508543Y-53627867D01*
X164465000Y-53661733D01*
X164813343Y-54237467D02*
X165161686Y-54237467D01*
X165466486Y-53695600D02*
X165466486Y-54169733D01*
X165270543Y-53695600D02*
X165270543Y-54068133D01*
X165292315Y-54135867D01*
X165335857Y-54169733D01*
X165401172Y-54169733D01*
X165444715Y-54135867D01*
X165466486Y-54102000D01*
X165836600Y-53797200D02*
X165684200Y-53797200D01*
X165684200Y-54169733D02*
X165684200Y-53458533D01*
X165901914Y-53458533D01*
M02*
