G04 #@! TF.FileFunction,Copper,L1,Top,Signal*
%FSLAX46Y46*%
G04 Gerber Fmt 4.6, Leading zero omitted, Abs format (unit mm)*
G04 Created by KiCad (PCBNEW 4.0.4-stable) date 06/20/17 10:55:23*
%MOMM*%
%LPD*%
G01*
G04 APERTURE LIST*
%ADD10C,0.150000*%
%ADD11R,6.350000X1.270000*%
%ADD12C,3.302000*%
%ADD13R,0.500380X2.250440*%
%ADD14R,0.635000X1.143000*%
%ADD15R,1.778000X1.778000*%
%ADD16C,1.778000*%
%ADD17C,0.889000*%
%ADD18C,0.304800*%
%ADD19C,0.254000*%
G04 APERTURE END LIST*
D10*
D11*
X130815080Y-66675000D03*
X135884920Y-64135000D03*
X130815080Y-61595000D03*
X135884920Y-59055000D03*
D12*
X170180000Y-53340000D03*
X129540000Y-53340000D03*
X170180000Y-73660000D03*
X129540000Y-73660000D03*
D13*
X147955000Y-61175900D03*
X149225000Y-61175900D03*
X150495000Y-61175900D03*
X151765000Y-61175900D03*
X147955000Y-65826640D03*
X149225000Y-65826640D03*
X150495000Y-65826640D03*
X151765000Y-65826640D03*
D14*
X161163000Y-53975000D03*
X162687000Y-53975000D03*
D15*
X160655000Y-67945000D03*
D16*
X163195000Y-67945000D03*
X160655000Y-65405000D03*
X163195000Y-65405000D03*
X160655000Y-62865000D03*
X163195000Y-62865000D03*
X160655000Y-60325000D03*
X163195000Y-60325000D03*
X160655000Y-57785000D03*
X163195000Y-57785000D03*
D17*
X153172160Y-62715140D03*
D18*
X151765000Y-62715140D02*
X151198580Y-63281560D01*
X151198580Y-63281560D02*
X147137120Y-63281560D01*
X147137120Y-63281560D02*
X146723100Y-62867540D01*
X146723100Y-62867540D02*
X146723100Y-59141360D01*
X146723100Y-59141360D02*
X151889460Y-53975000D01*
X151889460Y-53975000D02*
X161163000Y-53975000D01*
X151765000Y-62715140D02*
X153172160Y-62715140D01*
X151765000Y-61175900D02*
X151765000Y-62715140D01*
X150495000Y-62715140D02*
X147373340Y-62715140D01*
X147373340Y-62715140D02*
X147289520Y-62631320D01*
X147289520Y-62631320D02*
X147289520Y-59443620D01*
X147289520Y-59443620D02*
X151203660Y-55529480D01*
X151203660Y-55529480D02*
X163497260Y-55529480D01*
X163497260Y-55529480D02*
X164533580Y-56565800D01*
X164533580Y-56565800D02*
X164533580Y-58986420D01*
X164533580Y-58986420D02*
X163195000Y-60325000D01*
X150495000Y-61175900D02*
X150495000Y-62715140D01*
X147955000Y-65826640D02*
X147955000Y-67365880D01*
X160655000Y-62865000D02*
X155521660Y-67998340D01*
X155521660Y-67998340D02*
X148587460Y-67998340D01*
X148587460Y-67998340D02*
X147955000Y-67365880D01*
X149225000Y-65826640D02*
X149225000Y-67365880D01*
X160655000Y-60325000D02*
X153614120Y-67365880D01*
X153614120Y-67365880D02*
X149225000Y-67365880D01*
X149225000Y-59636660D02*
X151076660Y-57785000D01*
X151076660Y-57785000D02*
X160655000Y-57785000D01*
X149225000Y-61175900D02*
X149225000Y-59636660D01*
X147955000Y-61175900D02*
X147955000Y-59580780D01*
X147955000Y-59580780D02*
X151157940Y-56377840D01*
X151157940Y-56377840D02*
X161787840Y-56377840D01*
X161787840Y-56377840D02*
X163195000Y-57785000D01*
X130815080Y-66675000D02*
X134404100Y-66675000D01*
X134404100Y-66675000D02*
X138371580Y-70642480D01*
X138371580Y-70642480D02*
X164391340Y-70642480D01*
X164391340Y-70642480D02*
X165069520Y-69964300D01*
X165069520Y-69964300D02*
X165069520Y-64739520D01*
X165069520Y-64739520D02*
X163195000Y-62865000D01*
X135884920Y-64135000D02*
X139473940Y-64135000D01*
X139473940Y-64135000D02*
X145356580Y-70017640D01*
X145356580Y-70017640D02*
X163736020Y-70017640D01*
X163736020Y-70017640D02*
X164500560Y-69253100D01*
X164500560Y-69253100D02*
X164500560Y-66710560D01*
X164500560Y-66710560D02*
X163195000Y-65405000D01*
X130815080Y-61595000D02*
X138478260Y-61595000D01*
X138478260Y-61595000D02*
X146331940Y-69448680D01*
X146331940Y-69448680D02*
X161691320Y-69448680D01*
X161691320Y-69448680D02*
X163195000Y-67945000D01*
X160655000Y-65405000D02*
X157248860Y-68811140D01*
X157248860Y-68811140D02*
X148097240Y-68811140D01*
X148097240Y-68811140D02*
X146791680Y-67505580D01*
X146791680Y-67505580D02*
X146791680Y-64066420D01*
X146791680Y-64066420D02*
X150131780Y-64066420D01*
X150131780Y-64066420D02*
X150495000Y-64429640D01*
X145420080Y-59309000D02*
X145420080Y-62694820D01*
X145420080Y-62694820D02*
X146791680Y-64066420D01*
X150495000Y-64429640D02*
X150637240Y-64287400D01*
X150637240Y-64287400D02*
X151765000Y-64287400D01*
X150495000Y-65826640D02*
X150495000Y-64429640D01*
X151765000Y-65826640D02*
X151765000Y-64287400D01*
X135884920Y-59055000D02*
X139473940Y-59055000D01*
X145420080Y-59309000D02*
X139727940Y-59309000D01*
X139727940Y-59309000D02*
X139473940Y-59055000D01*
X161955480Y-53975000D02*
X161955480Y-53243480D01*
X161955480Y-53243480D02*
X161698940Y-52986940D01*
X161698940Y-52986940D02*
X151742140Y-52986940D01*
X151742140Y-52986940D02*
X145420080Y-59309000D01*
X162687000Y-53975000D02*
X161955480Y-53975000D01*
D19*
G36*
X159773620Y-59055000D02*
X159364680Y-59463940D01*
X159133540Y-60022740D01*
X159133540Y-60627260D01*
X159164020Y-60700920D01*
X153289000Y-66578480D01*
X152646380Y-66578480D01*
X152648920Y-66111120D01*
X152648920Y-65542160D01*
X152646380Y-64825880D01*
X152646380Y-64574420D01*
X152549860Y-64343280D01*
X152372060Y-64165480D01*
X152138380Y-64068960D01*
X152046940Y-64066420D01*
X151889460Y-64223900D01*
X151889460Y-65699640D01*
X152491440Y-65699640D01*
X152648920Y-65542160D01*
X152648920Y-66111120D01*
X152491440Y-65953640D01*
X152019000Y-65953640D01*
X151889460Y-65953640D01*
X151640540Y-65953640D01*
X151511000Y-65953640D01*
X151221440Y-65953640D01*
X151038560Y-65953640D01*
X150749000Y-65953640D01*
X150619460Y-65953640D01*
X150370540Y-65953640D01*
X150368000Y-65953640D01*
X150368000Y-65699640D01*
X150370540Y-65699640D01*
X150619460Y-65699640D01*
X150749000Y-65699640D01*
X151038560Y-65699640D01*
X151221440Y-65699640D01*
X151640540Y-65699640D01*
X151640540Y-64223900D01*
X151483060Y-64066420D01*
X151391620Y-64068960D01*
X151157940Y-64165480D01*
X151130000Y-64193420D01*
X151102060Y-64165480D01*
X150868380Y-64068960D01*
X151198580Y-64068960D01*
X151498300Y-64008000D01*
X151500840Y-64008000D01*
X151754840Y-63837820D01*
X152090120Y-63502540D01*
X152433020Y-63502540D01*
X152560020Y-63629540D01*
X152956260Y-63794640D01*
X153385520Y-63794640D01*
X153781760Y-63632080D01*
X154086560Y-63327280D01*
X154251660Y-62931040D01*
X154251660Y-62501780D01*
X154089100Y-62105540D01*
X153784300Y-61800740D01*
X153388060Y-61635640D01*
X152958800Y-61635640D01*
X152646380Y-61762640D01*
X152646380Y-59926220D01*
X152549860Y-59692540D01*
X152372060Y-59514740D01*
X152140920Y-59418220D01*
X151889460Y-59418220D01*
X151391620Y-59418220D01*
X151157940Y-59514740D01*
X151130000Y-59542680D01*
X151102060Y-59514740D01*
X150870920Y-59418220D01*
X150619460Y-59418220D01*
X150555960Y-59418220D01*
X151401780Y-58572400D01*
X159334200Y-58572400D01*
X159364680Y-58646060D01*
X159773620Y-59055000D01*
X159773620Y-59055000D01*
G37*
X159773620Y-59055000D02*
X159364680Y-59463940D01*
X159133540Y-60022740D01*
X159133540Y-60627260D01*
X159164020Y-60700920D01*
X153289000Y-66578480D01*
X152646380Y-66578480D01*
X152648920Y-66111120D01*
X152648920Y-65542160D01*
X152646380Y-64825880D01*
X152646380Y-64574420D01*
X152549860Y-64343280D01*
X152372060Y-64165480D01*
X152138380Y-64068960D01*
X152046940Y-64066420D01*
X151889460Y-64223900D01*
X151889460Y-65699640D01*
X152491440Y-65699640D01*
X152648920Y-65542160D01*
X152648920Y-66111120D01*
X152491440Y-65953640D01*
X152019000Y-65953640D01*
X151889460Y-65953640D01*
X151640540Y-65953640D01*
X151511000Y-65953640D01*
X151221440Y-65953640D01*
X151038560Y-65953640D01*
X150749000Y-65953640D01*
X150619460Y-65953640D01*
X150370540Y-65953640D01*
X150368000Y-65953640D01*
X150368000Y-65699640D01*
X150370540Y-65699640D01*
X150619460Y-65699640D01*
X150749000Y-65699640D01*
X151038560Y-65699640D01*
X151221440Y-65699640D01*
X151640540Y-65699640D01*
X151640540Y-64223900D01*
X151483060Y-64066420D01*
X151391620Y-64068960D01*
X151157940Y-64165480D01*
X151130000Y-64193420D01*
X151102060Y-64165480D01*
X150868380Y-64068960D01*
X151198580Y-64068960D01*
X151498300Y-64008000D01*
X151500840Y-64008000D01*
X151754840Y-63837820D01*
X152090120Y-63502540D01*
X152433020Y-63502540D01*
X152560020Y-63629540D01*
X152956260Y-63794640D01*
X153385520Y-63794640D01*
X153781760Y-63632080D01*
X154086560Y-63327280D01*
X154251660Y-62931040D01*
X154251660Y-62501780D01*
X154089100Y-62105540D01*
X153784300Y-61800740D01*
X153388060Y-61635640D01*
X152958800Y-61635640D01*
X152646380Y-61762640D01*
X152646380Y-59926220D01*
X152549860Y-59692540D01*
X152372060Y-59514740D01*
X152140920Y-59418220D01*
X151889460Y-59418220D01*
X151391620Y-59418220D01*
X151157940Y-59514740D01*
X151130000Y-59542680D01*
X151102060Y-59514740D01*
X150870920Y-59418220D01*
X150619460Y-59418220D01*
X150555960Y-59418220D01*
X151401780Y-58572400D01*
X159334200Y-58572400D01*
X159364680Y-58646060D01*
X159773620Y-59055000D01*
G36*
X162313620Y-64135000D02*
X161904680Y-64543940D01*
X161884360Y-64592200D01*
X161706560Y-64533780D01*
X160924240Y-65316100D01*
X160835340Y-65405000D01*
X160655000Y-65585340D01*
X160474660Y-65405000D01*
X160655000Y-65224660D01*
X160743900Y-65135760D01*
X161526220Y-64353440D01*
X161465260Y-64173100D01*
X161516060Y-64155320D01*
X161925000Y-63746380D01*
X162313620Y-64135000D01*
X162313620Y-64135000D01*
G37*
X162313620Y-64135000D02*
X161904680Y-64543940D01*
X161884360Y-64592200D01*
X161706560Y-64533780D01*
X160924240Y-65316100D01*
X160835340Y-65405000D01*
X160655000Y-65585340D01*
X160474660Y-65405000D01*
X160655000Y-65224660D01*
X160743900Y-65135760D01*
X161526220Y-64353440D01*
X161465260Y-64173100D01*
X161516060Y-64155320D01*
X161925000Y-63746380D01*
X162313620Y-64135000D01*
G36*
X171894500Y-72141080D02*
X171477940Y-71724520D01*
X170637200Y-71374000D01*
X169727880Y-71374000D01*
X168887140Y-71721980D01*
X168244520Y-72362060D01*
X167894000Y-73202800D01*
X167894000Y-74112120D01*
X168241980Y-74952860D01*
X168661080Y-75374500D01*
X131056380Y-75374500D01*
X131475480Y-74957940D01*
X131826000Y-74117200D01*
X131826000Y-73207880D01*
X131478020Y-72367140D01*
X130837940Y-71724520D01*
X129997200Y-71374000D01*
X129087880Y-71374000D01*
X128247140Y-71721980D01*
X127825500Y-72141080D01*
X127825500Y-67942460D01*
X134114540Y-67942460D01*
X134348220Y-67845940D01*
X134404100Y-67787520D01*
X137815320Y-71198740D01*
X138069320Y-71368920D01*
X138071860Y-71368920D01*
X138371580Y-71429880D01*
X164391340Y-71429880D01*
X164691060Y-71368920D01*
X164693600Y-71368920D01*
X164947600Y-71198740D01*
X165625780Y-70523100D01*
X165625780Y-70520560D01*
X165795960Y-70266560D01*
X165854380Y-69964300D01*
X165856920Y-69964300D01*
X165856920Y-64739520D01*
X165795960Y-64437260D01*
X165625780Y-64183260D01*
X165625780Y-64180720D01*
X164683440Y-63240920D01*
X164716460Y-63167260D01*
X164716460Y-62562740D01*
X164485320Y-62003940D01*
X164076380Y-61595000D01*
X164485320Y-61186060D01*
X164716460Y-60627260D01*
X164716460Y-60022740D01*
X164683440Y-59946540D01*
X165089840Y-59542680D01*
X165260020Y-59288680D01*
X165260020Y-59286140D01*
X165320980Y-58986420D01*
X165320980Y-56565800D01*
X165318440Y-56563260D01*
X165260020Y-56263540D01*
X165089840Y-56009540D01*
X165087300Y-56007000D01*
X164053520Y-54973220D01*
X163799520Y-54803040D01*
X163598860Y-54762400D01*
X163636960Y-54673500D01*
X163636960Y-54422040D01*
X163639500Y-54259480D01*
X163639500Y-53690520D01*
X163636960Y-53527960D01*
X163636960Y-53276500D01*
X163540440Y-53045360D01*
X163362640Y-52867560D01*
X163128960Y-52771040D01*
X162971480Y-52768500D01*
X162814000Y-52925980D01*
X162814000Y-53848000D01*
X163482020Y-53848000D01*
X163639500Y-53690520D01*
X163639500Y-54259480D01*
X163482020Y-54102000D01*
X162941000Y-54102000D01*
X162814000Y-54102000D01*
X162560000Y-54102000D01*
X162560000Y-53848000D01*
X162560000Y-53721000D01*
X162560000Y-52925980D01*
X162402520Y-52768500D01*
X162245040Y-52771040D01*
X162011360Y-52867560D01*
X161925000Y-52953920D01*
X161838640Y-52867560D01*
X161607500Y-52771040D01*
X161356040Y-52771040D01*
X160721040Y-52771040D01*
X160487360Y-52867560D01*
X160309560Y-53045360D01*
X160248600Y-53187600D01*
X151889460Y-53187600D01*
X151587200Y-53248560D01*
X151460200Y-53332380D01*
X151330660Y-53418740D01*
X146166840Y-58585100D01*
X145996660Y-58839100D01*
X145935700Y-59141360D01*
X145935700Y-62867540D01*
X145996660Y-63169800D01*
X146166840Y-63423800D01*
X146578320Y-63837820D01*
X146580860Y-63837820D01*
X146707860Y-63921640D01*
X146834860Y-64008000D01*
X146837400Y-64008000D01*
X147137120Y-64068960D01*
X147581620Y-64068960D01*
X147347940Y-64165480D01*
X147170140Y-64343280D01*
X147073620Y-64574420D01*
X147073620Y-64825880D01*
X147073620Y-67076320D01*
X147167600Y-67302380D01*
X147167600Y-67365880D01*
X147228560Y-67668140D01*
X147398740Y-67922140D01*
X148031200Y-68554600D01*
X148188680Y-68661280D01*
X146657060Y-68661280D01*
X139694920Y-61699140D01*
X139694920Y-59339480D01*
X139694920Y-58770520D01*
X139692380Y-58295540D01*
X139595860Y-58061860D01*
X139418060Y-57884060D01*
X139186920Y-57787540D01*
X138935460Y-57787540D01*
X136169400Y-57785000D01*
X136011920Y-57942480D01*
X136011920Y-58928000D01*
X139537440Y-58928000D01*
X139694920Y-58770520D01*
X139694920Y-59339480D01*
X139537440Y-59182000D01*
X136011920Y-59182000D01*
X136011920Y-60167520D01*
X136169400Y-60325000D01*
X138935460Y-60322460D01*
X139186920Y-60322460D01*
X139418060Y-60225940D01*
X139595860Y-60048140D01*
X139692380Y-59814460D01*
X139694920Y-59339480D01*
X139694920Y-61699140D01*
X139034520Y-61038740D01*
X138780520Y-60868560D01*
X138478260Y-60807600D01*
X135757920Y-60807600D01*
X135757920Y-60167520D01*
X135757920Y-59182000D01*
X135757920Y-58928000D01*
X135757920Y-57942480D01*
X135600440Y-57785000D01*
X132834380Y-57787540D01*
X132582920Y-57787540D01*
X132351780Y-57884060D01*
X132173980Y-58061860D01*
X132077460Y-58295540D01*
X132074920Y-58770520D01*
X132232400Y-58928000D01*
X135757920Y-58928000D01*
X135757920Y-59182000D01*
X132232400Y-59182000D01*
X132074920Y-59339480D01*
X132077460Y-59814460D01*
X132173980Y-60048140D01*
X132351780Y-60225940D01*
X132582920Y-60322460D01*
X132834380Y-60322460D01*
X135600440Y-60325000D01*
X135757920Y-60167520D01*
X135757920Y-60807600D01*
X134609840Y-60807600D01*
X134526020Y-60601860D01*
X134348220Y-60424060D01*
X134117080Y-60327540D01*
X133865620Y-60327540D01*
X127825500Y-60327540D01*
X127825500Y-54856380D01*
X128242060Y-55275480D01*
X129082800Y-55626000D01*
X129992120Y-55626000D01*
X130832860Y-55278020D01*
X131475480Y-54637940D01*
X131826000Y-53797200D01*
X131826000Y-52887880D01*
X131478020Y-52047140D01*
X131056380Y-51625500D01*
X168661080Y-51625500D01*
X168244520Y-52042060D01*
X167894000Y-52882800D01*
X167894000Y-53792120D01*
X168241980Y-54632860D01*
X168882060Y-55275480D01*
X169722800Y-55626000D01*
X170632120Y-55626000D01*
X171472860Y-55278020D01*
X171894500Y-54856380D01*
X171894500Y-72141080D01*
X171894500Y-72141080D01*
G37*
X171894500Y-72141080D02*
X171477940Y-71724520D01*
X170637200Y-71374000D01*
X169727880Y-71374000D01*
X168887140Y-71721980D01*
X168244520Y-72362060D01*
X167894000Y-73202800D01*
X167894000Y-74112120D01*
X168241980Y-74952860D01*
X168661080Y-75374500D01*
X131056380Y-75374500D01*
X131475480Y-74957940D01*
X131826000Y-74117200D01*
X131826000Y-73207880D01*
X131478020Y-72367140D01*
X130837940Y-71724520D01*
X129997200Y-71374000D01*
X129087880Y-71374000D01*
X128247140Y-71721980D01*
X127825500Y-72141080D01*
X127825500Y-67942460D01*
X134114540Y-67942460D01*
X134348220Y-67845940D01*
X134404100Y-67787520D01*
X137815320Y-71198740D01*
X138069320Y-71368920D01*
X138071860Y-71368920D01*
X138371580Y-71429880D01*
X164391340Y-71429880D01*
X164691060Y-71368920D01*
X164693600Y-71368920D01*
X164947600Y-71198740D01*
X165625780Y-70523100D01*
X165625780Y-70520560D01*
X165795960Y-70266560D01*
X165854380Y-69964300D01*
X165856920Y-69964300D01*
X165856920Y-64739520D01*
X165795960Y-64437260D01*
X165625780Y-64183260D01*
X165625780Y-64180720D01*
X164683440Y-63240920D01*
X164716460Y-63167260D01*
X164716460Y-62562740D01*
X164485320Y-62003940D01*
X164076380Y-61595000D01*
X164485320Y-61186060D01*
X164716460Y-60627260D01*
X164716460Y-60022740D01*
X164683440Y-59946540D01*
X165089840Y-59542680D01*
X165260020Y-59288680D01*
X165260020Y-59286140D01*
X165320980Y-58986420D01*
X165320980Y-56565800D01*
X165318440Y-56563260D01*
X165260020Y-56263540D01*
X165089840Y-56009540D01*
X165087300Y-56007000D01*
X164053520Y-54973220D01*
X163799520Y-54803040D01*
X163598860Y-54762400D01*
X163636960Y-54673500D01*
X163636960Y-54422040D01*
X163639500Y-54259480D01*
X163639500Y-53690520D01*
X163636960Y-53527960D01*
X163636960Y-53276500D01*
X163540440Y-53045360D01*
X163362640Y-52867560D01*
X163128960Y-52771040D01*
X162971480Y-52768500D01*
X162814000Y-52925980D01*
X162814000Y-53848000D01*
X163482020Y-53848000D01*
X163639500Y-53690520D01*
X163639500Y-54259480D01*
X163482020Y-54102000D01*
X162941000Y-54102000D01*
X162814000Y-54102000D01*
X162560000Y-54102000D01*
X162560000Y-53848000D01*
X162560000Y-53721000D01*
X162560000Y-52925980D01*
X162402520Y-52768500D01*
X162245040Y-52771040D01*
X162011360Y-52867560D01*
X161925000Y-52953920D01*
X161838640Y-52867560D01*
X161607500Y-52771040D01*
X161356040Y-52771040D01*
X160721040Y-52771040D01*
X160487360Y-52867560D01*
X160309560Y-53045360D01*
X160248600Y-53187600D01*
X151889460Y-53187600D01*
X151587200Y-53248560D01*
X151460200Y-53332380D01*
X151330660Y-53418740D01*
X146166840Y-58585100D01*
X145996660Y-58839100D01*
X145935700Y-59141360D01*
X145935700Y-62867540D01*
X145996660Y-63169800D01*
X146166840Y-63423800D01*
X146578320Y-63837820D01*
X146580860Y-63837820D01*
X146707860Y-63921640D01*
X146834860Y-64008000D01*
X146837400Y-64008000D01*
X147137120Y-64068960D01*
X147581620Y-64068960D01*
X147347940Y-64165480D01*
X147170140Y-64343280D01*
X147073620Y-64574420D01*
X147073620Y-64825880D01*
X147073620Y-67076320D01*
X147167600Y-67302380D01*
X147167600Y-67365880D01*
X147228560Y-67668140D01*
X147398740Y-67922140D01*
X148031200Y-68554600D01*
X148188680Y-68661280D01*
X146657060Y-68661280D01*
X139694920Y-61699140D01*
X139694920Y-59339480D01*
X139694920Y-58770520D01*
X139692380Y-58295540D01*
X139595860Y-58061860D01*
X139418060Y-57884060D01*
X139186920Y-57787540D01*
X138935460Y-57787540D01*
X136169400Y-57785000D01*
X136011920Y-57942480D01*
X136011920Y-58928000D01*
X139537440Y-58928000D01*
X139694920Y-58770520D01*
X139694920Y-59339480D01*
X139537440Y-59182000D01*
X136011920Y-59182000D01*
X136011920Y-60167520D01*
X136169400Y-60325000D01*
X138935460Y-60322460D01*
X139186920Y-60322460D01*
X139418060Y-60225940D01*
X139595860Y-60048140D01*
X139692380Y-59814460D01*
X139694920Y-59339480D01*
X139694920Y-61699140D01*
X139034520Y-61038740D01*
X138780520Y-60868560D01*
X138478260Y-60807600D01*
X135757920Y-60807600D01*
X135757920Y-60167520D01*
X135757920Y-59182000D01*
X135757920Y-58928000D01*
X135757920Y-57942480D01*
X135600440Y-57785000D01*
X132834380Y-57787540D01*
X132582920Y-57787540D01*
X132351780Y-57884060D01*
X132173980Y-58061860D01*
X132077460Y-58295540D01*
X132074920Y-58770520D01*
X132232400Y-58928000D01*
X135757920Y-58928000D01*
X135757920Y-59182000D01*
X132232400Y-59182000D01*
X132074920Y-59339480D01*
X132077460Y-59814460D01*
X132173980Y-60048140D01*
X132351780Y-60225940D01*
X132582920Y-60322460D01*
X132834380Y-60322460D01*
X135600440Y-60325000D01*
X135757920Y-60167520D01*
X135757920Y-60807600D01*
X134609840Y-60807600D01*
X134526020Y-60601860D01*
X134348220Y-60424060D01*
X134117080Y-60327540D01*
X133865620Y-60327540D01*
X127825500Y-60327540D01*
X127825500Y-54856380D01*
X128242060Y-55275480D01*
X129082800Y-55626000D01*
X129992120Y-55626000D01*
X130832860Y-55278020D01*
X131475480Y-54637940D01*
X131826000Y-53797200D01*
X131826000Y-52887880D01*
X131478020Y-52047140D01*
X131056380Y-51625500D01*
X168661080Y-51625500D01*
X168244520Y-52042060D01*
X167894000Y-52882800D01*
X167894000Y-53792120D01*
X168241980Y-54632860D01*
X168882060Y-55275480D01*
X169722800Y-55626000D01*
X170632120Y-55626000D01*
X171472860Y-55278020D01*
X171894500Y-54856380D01*
X171894500Y-72141080D01*
M02*
