G04 #@! TF.FileFunction,Copper,L1,Top,Signal*
%FSLAX46Y46*%
G04 Gerber Fmt 4.6, Leading zero omitted, Abs format (unit mm)*
G04 Created by KiCad (PCBNEW 4.0.7) date 01/10/18 12:45:48*
%MOMM*%
%LPD*%
G01*
G04 APERTURE LIST*
%ADD10C,0.150000*%
%ADD11R,3.997960X0.998220*%
%ADD12R,1.300000X0.700000*%
%ADD13C,1.400000*%
%ADD14O,1.400000X1.400000*%
%ADD15C,0.304800*%
%ADD16C,0.254000*%
G04 APERTURE END LIST*
D10*
D11*
X117819100Y-58890000D03*
X117819100Y-61430000D03*
X117819100Y-63970000D03*
X117819100Y-66510000D03*
D12*
X97510000Y-62400000D03*
X97510000Y-63500000D03*
X97510000Y-64600000D03*
X100610000Y-64600000D03*
X100610000Y-63500000D03*
X100610000Y-62400000D03*
D13*
X88510000Y-59820000D03*
D14*
X83430000Y-59820000D03*
D13*
X88510000Y-63510000D03*
D14*
X83430000Y-63510000D03*
D13*
X88510000Y-67250000D03*
D14*
X83430000Y-67250000D03*
D15*
X118400000Y-58950000D02*
X108450000Y-58950000D01*
X105000000Y-62400000D02*
X100610000Y-62400000D01*
X108450000Y-58950000D02*
X105000000Y-62400000D01*
X118400000Y-61490000D02*
X108310000Y-61490000D01*
X106300000Y-63500000D02*
X100610000Y-63500000D01*
X108310000Y-61490000D02*
X106300000Y-63500000D01*
X118400000Y-64030000D02*
X107520000Y-64030000D01*
X106950000Y-64600000D02*
X100610000Y-64600000D01*
X107520000Y-64030000D02*
X106950000Y-64600000D01*
X117819100Y-66510000D02*
X108540000Y-66520000D01*
X105700000Y-69360000D02*
X81570000Y-69350000D01*
X108540000Y-66520000D02*
X105700000Y-69360000D01*
X83270000Y-67300000D02*
X82520000Y-67300000D01*
X82520000Y-67300000D02*
X81470000Y-68350000D01*
X83270000Y-63500000D02*
X82220000Y-63500000D01*
X82220000Y-63500000D02*
X81470000Y-64250000D01*
X83270000Y-59800000D02*
X81720000Y-59800000D01*
X81720000Y-59800000D02*
X81470000Y-60050000D01*
X81570000Y-69350000D02*
X86710000Y-69380000D01*
X81470000Y-69250000D02*
X81570000Y-69350000D01*
X81470000Y-60050000D02*
X81470000Y-64250000D01*
X81470000Y-64250000D02*
X81470000Y-65200000D01*
X81470000Y-65200000D02*
X81470000Y-68350000D01*
X81470000Y-68350000D02*
X81470000Y-69250000D01*
X95219820Y-61100000D02*
X91600000Y-61100000D01*
X97584260Y-62400180D02*
X96520000Y-62400180D01*
X95755460Y-61635640D02*
X96520000Y-62400180D01*
X95269820Y-61150000D02*
X95755460Y-61635640D01*
X95219820Y-61100000D02*
X95269820Y-61150000D01*
X90300000Y-59800000D02*
X88550000Y-59800000D01*
X91600000Y-61100000D02*
X90300000Y-59800000D01*
X97510000Y-63500000D02*
X88550000Y-63500000D01*
X97510000Y-64600000D02*
X96350000Y-64600000D01*
X89900000Y-67300000D02*
X88550000Y-67300000D01*
X91300000Y-65900000D02*
X89900000Y-67300000D01*
X95050000Y-65900000D02*
X91300000Y-65900000D01*
X96350000Y-64600000D02*
X95050000Y-65900000D01*
D16*
G36*
X121094500Y-75374500D02*
X77025500Y-75374500D01*
X77025500Y-73292619D01*
X77314613Y-73292619D01*
X77654155Y-74114372D01*
X78282321Y-74743636D01*
X79103481Y-75084611D01*
X79992619Y-75085387D01*
X80814372Y-74745845D01*
X81443636Y-74117679D01*
X81784611Y-73296519D01*
X81784614Y-73292619D01*
X116364613Y-73292619D01*
X116704155Y-74114372D01*
X117332321Y-74743636D01*
X118153481Y-75084611D01*
X119042619Y-75085387D01*
X119864372Y-74745845D01*
X120493636Y-74117679D01*
X120834611Y-73296519D01*
X120835387Y-72407381D01*
X120495845Y-71585628D01*
X119867679Y-70956364D01*
X119046519Y-70615389D01*
X118157381Y-70614613D01*
X117335628Y-70954155D01*
X116706364Y-71582321D01*
X116365389Y-72403481D01*
X116364613Y-73292619D01*
X81784614Y-73292619D01*
X81785387Y-72407381D01*
X81445845Y-71585628D01*
X80817679Y-70956364D01*
X79996519Y-70615389D01*
X79107381Y-70614613D01*
X78285628Y-70954155D01*
X77656364Y-71582321D01*
X77315389Y-72403481D01*
X77314613Y-73292619D01*
X77025500Y-73292619D01*
X77025500Y-67583329D01*
X82137284Y-67583329D01*
X82280203Y-67928396D01*
X82627337Y-68316764D01*
X83096669Y-68542727D01*
X83303000Y-68420206D01*
X83303000Y-67377000D01*
X83557000Y-67377000D01*
X83557000Y-68420206D01*
X83763331Y-68542727D01*
X84232663Y-68316764D01*
X84579797Y-67928396D01*
X84722716Y-67583329D01*
X84599374Y-67377000D01*
X83557000Y-67377000D01*
X83303000Y-67377000D01*
X82260626Y-67377000D01*
X82137284Y-67583329D01*
X77025500Y-67583329D01*
X77025500Y-66916671D01*
X82137284Y-66916671D01*
X82260626Y-67123000D01*
X83303000Y-67123000D01*
X83303000Y-66079794D01*
X83557000Y-66079794D01*
X83557000Y-67123000D01*
X84599374Y-67123000D01*
X84722716Y-66916671D01*
X84579797Y-66571604D01*
X84232663Y-66183236D01*
X83763331Y-65957273D01*
X83557000Y-66079794D01*
X83303000Y-66079794D01*
X83096669Y-65957273D01*
X82627337Y-66183236D01*
X82280203Y-66571604D01*
X82137284Y-66916671D01*
X77025500Y-66916671D01*
X77025500Y-63843329D01*
X82137284Y-63843329D01*
X82280203Y-64188396D01*
X82627337Y-64576764D01*
X83096669Y-64802727D01*
X83303000Y-64680206D01*
X83303000Y-63637000D01*
X83557000Y-63637000D01*
X83557000Y-64680206D01*
X83763331Y-64802727D01*
X84232663Y-64576764D01*
X84579797Y-64188396D01*
X84722716Y-63843329D01*
X84599374Y-63637000D01*
X83557000Y-63637000D01*
X83303000Y-63637000D01*
X82260626Y-63637000D01*
X82137284Y-63843329D01*
X77025500Y-63843329D01*
X77025500Y-63176671D01*
X82137284Y-63176671D01*
X82260626Y-63383000D01*
X83303000Y-63383000D01*
X83303000Y-62339794D01*
X83557000Y-62339794D01*
X83557000Y-63383000D01*
X84599374Y-63383000D01*
X84722716Y-63176671D01*
X84579797Y-62831604D01*
X84232663Y-62443236D01*
X83763331Y-62217273D01*
X83557000Y-62339794D01*
X83303000Y-62339794D01*
X83096669Y-62217273D01*
X82627337Y-62443236D01*
X82280203Y-62831604D01*
X82137284Y-63176671D01*
X77025500Y-63176671D01*
X77025500Y-60153329D01*
X82137284Y-60153329D01*
X82280203Y-60498396D01*
X82627337Y-60886764D01*
X83096669Y-61112727D01*
X83303000Y-60990206D01*
X83303000Y-59947000D01*
X83557000Y-59947000D01*
X83557000Y-60990206D01*
X83763331Y-61112727D01*
X84232663Y-60886764D01*
X84579797Y-60498396D01*
X84722716Y-60153329D01*
X84681501Y-60084383D01*
X87174769Y-60084383D01*
X87377582Y-60575229D01*
X87752796Y-60951098D01*
X88243287Y-61154768D01*
X88774383Y-61155231D01*
X89265229Y-60952418D01*
X89630884Y-60587400D01*
X89973848Y-60587400D01*
X91043224Y-61656776D01*
X91298675Y-61827463D01*
X91600000Y-61887400D01*
X94893668Y-61887400D01*
X95718868Y-62712600D01*
X89600320Y-62712600D01*
X89267204Y-62378902D01*
X88776713Y-62175232D01*
X88245617Y-62174769D01*
X87754771Y-62377582D01*
X87378902Y-62752796D01*
X87175232Y-63243287D01*
X87174769Y-63774383D01*
X87377582Y-64265229D01*
X87752796Y-64641098D01*
X88243287Y-64844768D01*
X88774383Y-64845231D01*
X89265229Y-64642418D01*
X89620867Y-64287400D01*
X95549048Y-64287400D01*
X94723848Y-65112600D01*
X91300000Y-65112600D01*
X90998675Y-65172537D01*
X90743224Y-65343224D01*
X89617070Y-66469378D01*
X89267204Y-66118902D01*
X88776713Y-65915232D01*
X88245617Y-65914769D01*
X87754771Y-66117582D01*
X87378902Y-66492796D01*
X87175232Y-66983287D01*
X87174769Y-67514383D01*
X87377582Y-68005229D01*
X87752796Y-68381098D01*
X88243287Y-68584768D01*
X88774383Y-68585231D01*
X89265229Y-68382418D01*
X89560762Y-68087400D01*
X89900000Y-68087400D01*
X90201325Y-68027463D01*
X90456776Y-67856776D01*
X91517802Y-66795750D01*
X115185120Y-66795750D01*
X115185120Y-67135420D01*
X115281793Y-67368809D01*
X115460422Y-67547437D01*
X115693811Y-67644110D01*
X117533350Y-67644110D01*
X117692100Y-67485360D01*
X117692100Y-66637000D01*
X117946100Y-66637000D01*
X117946100Y-67485360D01*
X118104850Y-67644110D01*
X119944389Y-67644110D01*
X120177778Y-67547437D01*
X120356407Y-67368809D01*
X120453080Y-67135420D01*
X120453080Y-66795750D01*
X120294330Y-66637000D01*
X117946100Y-66637000D01*
X117692100Y-66637000D01*
X115343870Y-66637000D01*
X115185120Y-66795750D01*
X91517802Y-66795750D01*
X91626152Y-66687400D01*
X95050000Y-66687400D01*
X95351325Y-66627463D01*
X95606776Y-66456776D01*
X96178972Y-65884580D01*
X115185120Y-65884580D01*
X115185120Y-66224250D01*
X115343870Y-66383000D01*
X117692100Y-66383000D01*
X117692100Y-65534640D01*
X117946100Y-65534640D01*
X117946100Y-66383000D01*
X120294330Y-66383000D01*
X120453080Y-66224250D01*
X120453080Y-65884580D01*
X120356407Y-65651191D01*
X120177778Y-65472563D01*
X119944389Y-65375890D01*
X118104850Y-65375890D01*
X117946100Y-65534640D01*
X117692100Y-65534640D01*
X117533350Y-65375890D01*
X115693811Y-65375890D01*
X115460422Y-65472563D01*
X115281793Y-65651191D01*
X115185120Y-65884580D01*
X96178972Y-65884580D01*
X96554055Y-65509497D01*
X96608110Y-65546431D01*
X96860000Y-65597440D01*
X98160000Y-65597440D01*
X98395317Y-65553162D01*
X98611441Y-65414090D01*
X98756431Y-65201890D01*
X98807440Y-64950000D01*
X98807440Y-64250000D01*
X98768426Y-64042658D01*
X98807440Y-63850000D01*
X98807440Y-63150000D01*
X98768426Y-62942658D01*
X98807440Y-62750000D01*
X98807440Y-62050000D01*
X99312560Y-62050000D01*
X99312560Y-62750000D01*
X99351574Y-62957342D01*
X99312560Y-63150000D01*
X99312560Y-63850000D01*
X99351574Y-64057342D01*
X99312560Y-64250000D01*
X99312560Y-64950000D01*
X99356838Y-65185317D01*
X99495910Y-65401441D01*
X99708110Y-65546431D01*
X99960000Y-65597440D01*
X101260000Y-65597440D01*
X101495317Y-65553162D01*
X101711441Y-65414090D01*
X101729677Y-65387400D01*
X106950000Y-65387400D01*
X107251325Y-65327463D01*
X107506776Y-65156776D01*
X107846152Y-64817400D01*
X115289654Y-64817400D01*
X115356030Y-64920551D01*
X115568230Y-65065541D01*
X115820120Y-65116550D01*
X119818080Y-65116550D01*
X120053397Y-65072272D01*
X120269521Y-64933200D01*
X120414511Y-64721000D01*
X120465520Y-64469110D01*
X120465520Y-63470890D01*
X120421242Y-63235573D01*
X120282170Y-63019449D01*
X120069970Y-62874459D01*
X119818080Y-62823450D01*
X115820120Y-62823450D01*
X115584803Y-62867728D01*
X115368679Y-63006800D01*
X115223689Y-63219000D01*
X115218910Y-63242600D01*
X107670952Y-63242600D01*
X108636152Y-62277400D01*
X115289654Y-62277400D01*
X115356030Y-62380551D01*
X115568230Y-62525541D01*
X115820120Y-62576550D01*
X119818080Y-62576550D01*
X120053397Y-62532272D01*
X120269521Y-62393200D01*
X120414511Y-62181000D01*
X120465520Y-61929110D01*
X120465520Y-60930890D01*
X120421242Y-60695573D01*
X120282170Y-60479449D01*
X120069970Y-60334459D01*
X119818080Y-60283450D01*
X115820120Y-60283450D01*
X115584803Y-60327728D01*
X115368679Y-60466800D01*
X115223689Y-60679000D01*
X115218910Y-60702600D01*
X108310000Y-60702600D01*
X108008675Y-60762537D01*
X107753224Y-60933224D01*
X105973848Y-62712600D01*
X105800952Y-62712600D01*
X108776152Y-59737400D01*
X115289654Y-59737400D01*
X115356030Y-59840551D01*
X115568230Y-59985541D01*
X115820120Y-60036550D01*
X119818080Y-60036550D01*
X120053397Y-59992272D01*
X120269521Y-59853200D01*
X120414511Y-59641000D01*
X120465520Y-59389110D01*
X120465520Y-58390890D01*
X120421242Y-58155573D01*
X120282170Y-57939449D01*
X120069970Y-57794459D01*
X119818080Y-57743450D01*
X115820120Y-57743450D01*
X115584803Y-57787728D01*
X115368679Y-57926800D01*
X115223689Y-58139000D01*
X115218910Y-58162600D01*
X108450000Y-58162600D01*
X108148675Y-58222537D01*
X107893224Y-58393224D01*
X104673848Y-61612600D01*
X101733125Y-61612600D01*
X101724090Y-61598559D01*
X101511890Y-61453569D01*
X101260000Y-61402560D01*
X99960000Y-61402560D01*
X99724683Y-61446838D01*
X99508559Y-61585910D01*
X99363569Y-61798110D01*
X99312560Y-62050000D01*
X98807440Y-62050000D01*
X98763162Y-61814683D01*
X98624090Y-61598559D01*
X98411890Y-61453569D01*
X98160000Y-61402560D01*
X96860000Y-61402560D01*
X96671416Y-61438044D01*
X95776596Y-60543224D01*
X95521145Y-60372537D01*
X95219820Y-60312600D01*
X91926152Y-60312600D01*
X90856776Y-59243224D01*
X90601325Y-59072537D01*
X90300000Y-59012600D01*
X89590338Y-59012600D01*
X89267204Y-58688902D01*
X88776713Y-58485232D01*
X88245617Y-58484769D01*
X87754771Y-58687582D01*
X87378902Y-59062796D01*
X87175232Y-59553287D01*
X87174769Y-60084383D01*
X84681501Y-60084383D01*
X84599374Y-59947000D01*
X83557000Y-59947000D01*
X83303000Y-59947000D01*
X82260626Y-59947000D01*
X82137284Y-60153329D01*
X77025500Y-60153329D01*
X77025500Y-59486671D01*
X82137284Y-59486671D01*
X82260626Y-59693000D01*
X83303000Y-59693000D01*
X83303000Y-58649794D01*
X83557000Y-58649794D01*
X83557000Y-59693000D01*
X84599374Y-59693000D01*
X84722716Y-59486671D01*
X84579797Y-59141604D01*
X84232663Y-58753236D01*
X83763331Y-58527273D01*
X83557000Y-58649794D01*
X83303000Y-58649794D01*
X83096669Y-58527273D01*
X82627337Y-58753236D01*
X82280203Y-59141604D01*
X82137284Y-59486671D01*
X77025500Y-59486671D01*
X77025500Y-54592619D01*
X77314613Y-54592619D01*
X77654155Y-55414372D01*
X78282321Y-56043636D01*
X79103481Y-56384611D01*
X79992619Y-56385387D01*
X80814372Y-56045845D01*
X81443636Y-55417679D01*
X81784611Y-54596519D01*
X81784614Y-54592619D01*
X116314613Y-54592619D01*
X116654155Y-55414372D01*
X117282321Y-56043636D01*
X118103481Y-56384611D01*
X118992619Y-56385387D01*
X119814372Y-56045845D01*
X120443636Y-55417679D01*
X120784611Y-54596519D01*
X120785387Y-53707381D01*
X120445845Y-52885628D01*
X119817679Y-52256364D01*
X118996519Y-51915389D01*
X118107381Y-51914613D01*
X117285628Y-52254155D01*
X116656364Y-52882321D01*
X116315389Y-53703481D01*
X116314613Y-54592619D01*
X81784614Y-54592619D01*
X81785387Y-53707381D01*
X81445845Y-52885628D01*
X80817679Y-52256364D01*
X79996519Y-51915389D01*
X79107381Y-51914613D01*
X78285628Y-52254155D01*
X77656364Y-52882321D01*
X77315389Y-53703481D01*
X77314613Y-54592619D01*
X77025500Y-54592619D01*
X77025500Y-51625500D01*
X121094500Y-51625500D01*
X121094500Y-75374500D01*
X121094500Y-75374500D01*
G37*
X121094500Y-75374500D02*
X77025500Y-75374500D01*
X77025500Y-73292619D01*
X77314613Y-73292619D01*
X77654155Y-74114372D01*
X78282321Y-74743636D01*
X79103481Y-75084611D01*
X79992619Y-75085387D01*
X80814372Y-74745845D01*
X81443636Y-74117679D01*
X81784611Y-73296519D01*
X81784614Y-73292619D01*
X116364613Y-73292619D01*
X116704155Y-74114372D01*
X117332321Y-74743636D01*
X118153481Y-75084611D01*
X119042619Y-75085387D01*
X119864372Y-74745845D01*
X120493636Y-74117679D01*
X120834611Y-73296519D01*
X120835387Y-72407381D01*
X120495845Y-71585628D01*
X119867679Y-70956364D01*
X119046519Y-70615389D01*
X118157381Y-70614613D01*
X117335628Y-70954155D01*
X116706364Y-71582321D01*
X116365389Y-72403481D01*
X116364613Y-73292619D01*
X81784614Y-73292619D01*
X81785387Y-72407381D01*
X81445845Y-71585628D01*
X80817679Y-70956364D01*
X79996519Y-70615389D01*
X79107381Y-70614613D01*
X78285628Y-70954155D01*
X77656364Y-71582321D01*
X77315389Y-72403481D01*
X77314613Y-73292619D01*
X77025500Y-73292619D01*
X77025500Y-67583329D01*
X82137284Y-67583329D01*
X82280203Y-67928396D01*
X82627337Y-68316764D01*
X83096669Y-68542727D01*
X83303000Y-68420206D01*
X83303000Y-67377000D01*
X83557000Y-67377000D01*
X83557000Y-68420206D01*
X83763331Y-68542727D01*
X84232663Y-68316764D01*
X84579797Y-67928396D01*
X84722716Y-67583329D01*
X84599374Y-67377000D01*
X83557000Y-67377000D01*
X83303000Y-67377000D01*
X82260626Y-67377000D01*
X82137284Y-67583329D01*
X77025500Y-67583329D01*
X77025500Y-66916671D01*
X82137284Y-66916671D01*
X82260626Y-67123000D01*
X83303000Y-67123000D01*
X83303000Y-66079794D01*
X83557000Y-66079794D01*
X83557000Y-67123000D01*
X84599374Y-67123000D01*
X84722716Y-66916671D01*
X84579797Y-66571604D01*
X84232663Y-66183236D01*
X83763331Y-65957273D01*
X83557000Y-66079794D01*
X83303000Y-66079794D01*
X83096669Y-65957273D01*
X82627337Y-66183236D01*
X82280203Y-66571604D01*
X82137284Y-66916671D01*
X77025500Y-66916671D01*
X77025500Y-63843329D01*
X82137284Y-63843329D01*
X82280203Y-64188396D01*
X82627337Y-64576764D01*
X83096669Y-64802727D01*
X83303000Y-64680206D01*
X83303000Y-63637000D01*
X83557000Y-63637000D01*
X83557000Y-64680206D01*
X83763331Y-64802727D01*
X84232663Y-64576764D01*
X84579797Y-64188396D01*
X84722716Y-63843329D01*
X84599374Y-63637000D01*
X83557000Y-63637000D01*
X83303000Y-63637000D01*
X82260626Y-63637000D01*
X82137284Y-63843329D01*
X77025500Y-63843329D01*
X77025500Y-63176671D01*
X82137284Y-63176671D01*
X82260626Y-63383000D01*
X83303000Y-63383000D01*
X83303000Y-62339794D01*
X83557000Y-62339794D01*
X83557000Y-63383000D01*
X84599374Y-63383000D01*
X84722716Y-63176671D01*
X84579797Y-62831604D01*
X84232663Y-62443236D01*
X83763331Y-62217273D01*
X83557000Y-62339794D01*
X83303000Y-62339794D01*
X83096669Y-62217273D01*
X82627337Y-62443236D01*
X82280203Y-62831604D01*
X82137284Y-63176671D01*
X77025500Y-63176671D01*
X77025500Y-60153329D01*
X82137284Y-60153329D01*
X82280203Y-60498396D01*
X82627337Y-60886764D01*
X83096669Y-61112727D01*
X83303000Y-60990206D01*
X83303000Y-59947000D01*
X83557000Y-59947000D01*
X83557000Y-60990206D01*
X83763331Y-61112727D01*
X84232663Y-60886764D01*
X84579797Y-60498396D01*
X84722716Y-60153329D01*
X84681501Y-60084383D01*
X87174769Y-60084383D01*
X87377582Y-60575229D01*
X87752796Y-60951098D01*
X88243287Y-61154768D01*
X88774383Y-61155231D01*
X89265229Y-60952418D01*
X89630884Y-60587400D01*
X89973848Y-60587400D01*
X91043224Y-61656776D01*
X91298675Y-61827463D01*
X91600000Y-61887400D01*
X94893668Y-61887400D01*
X95718868Y-62712600D01*
X89600320Y-62712600D01*
X89267204Y-62378902D01*
X88776713Y-62175232D01*
X88245617Y-62174769D01*
X87754771Y-62377582D01*
X87378902Y-62752796D01*
X87175232Y-63243287D01*
X87174769Y-63774383D01*
X87377582Y-64265229D01*
X87752796Y-64641098D01*
X88243287Y-64844768D01*
X88774383Y-64845231D01*
X89265229Y-64642418D01*
X89620867Y-64287400D01*
X95549048Y-64287400D01*
X94723848Y-65112600D01*
X91300000Y-65112600D01*
X90998675Y-65172537D01*
X90743224Y-65343224D01*
X89617070Y-66469378D01*
X89267204Y-66118902D01*
X88776713Y-65915232D01*
X88245617Y-65914769D01*
X87754771Y-66117582D01*
X87378902Y-66492796D01*
X87175232Y-66983287D01*
X87174769Y-67514383D01*
X87377582Y-68005229D01*
X87752796Y-68381098D01*
X88243287Y-68584768D01*
X88774383Y-68585231D01*
X89265229Y-68382418D01*
X89560762Y-68087400D01*
X89900000Y-68087400D01*
X90201325Y-68027463D01*
X90456776Y-67856776D01*
X91517802Y-66795750D01*
X115185120Y-66795750D01*
X115185120Y-67135420D01*
X115281793Y-67368809D01*
X115460422Y-67547437D01*
X115693811Y-67644110D01*
X117533350Y-67644110D01*
X117692100Y-67485360D01*
X117692100Y-66637000D01*
X117946100Y-66637000D01*
X117946100Y-67485360D01*
X118104850Y-67644110D01*
X119944389Y-67644110D01*
X120177778Y-67547437D01*
X120356407Y-67368809D01*
X120453080Y-67135420D01*
X120453080Y-66795750D01*
X120294330Y-66637000D01*
X117946100Y-66637000D01*
X117692100Y-66637000D01*
X115343870Y-66637000D01*
X115185120Y-66795750D01*
X91517802Y-66795750D01*
X91626152Y-66687400D01*
X95050000Y-66687400D01*
X95351325Y-66627463D01*
X95606776Y-66456776D01*
X96178972Y-65884580D01*
X115185120Y-65884580D01*
X115185120Y-66224250D01*
X115343870Y-66383000D01*
X117692100Y-66383000D01*
X117692100Y-65534640D01*
X117946100Y-65534640D01*
X117946100Y-66383000D01*
X120294330Y-66383000D01*
X120453080Y-66224250D01*
X120453080Y-65884580D01*
X120356407Y-65651191D01*
X120177778Y-65472563D01*
X119944389Y-65375890D01*
X118104850Y-65375890D01*
X117946100Y-65534640D01*
X117692100Y-65534640D01*
X117533350Y-65375890D01*
X115693811Y-65375890D01*
X115460422Y-65472563D01*
X115281793Y-65651191D01*
X115185120Y-65884580D01*
X96178972Y-65884580D01*
X96554055Y-65509497D01*
X96608110Y-65546431D01*
X96860000Y-65597440D01*
X98160000Y-65597440D01*
X98395317Y-65553162D01*
X98611441Y-65414090D01*
X98756431Y-65201890D01*
X98807440Y-64950000D01*
X98807440Y-64250000D01*
X98768426Y-64042658D01*
X98807440Y-63850000D01*
X98807440Y-63150000D01*
X98768426Y-62942658D01*
X98807440Y-62750000D01*
X98807440Y-62050000D01*
X99312560Y-62050000D01*
X99312560Y-62750000D01*
X99351574Y-62957342D01*
X99312560Y-63150000D01*
X99312560Y-63850000D01*
X99351574Y-64057342D01*
X99312560Y-64250000D01*
X99312560Y-64950000D01*
X99356838Y-65185317D01*
X99495910Y-65401441D01*
X99708110Y-65546431D01*
X99960000Y-65597440D01*
X101260000Y-65597440D01*
X101495317Y-65553162D01*
X101711441Y-65414090D01*
X101729677Y-65387400D01*
X106950000Y-65387400D01*
X107251325Y-65327463D01*
X107506776Y-65156776D01*
X107846152Y-64817400D01*
X115289654Y-64817400D01*
X115356030Y-64920551D01*
X115568230Y-65065541D01*
X115820120Y-65116550D01*
X119818080Y-65116550D01*
X120053397Y-65072272D01*
X120269521Y-64933200D01*
X120414511Y-64721000D01*
X120465520Y-64469110D01*
X120465520Y-63470890D01*
X120421242Y-63235573D01*
X120282170Y-63019449D01*
X120069970Y-62874459D01*
X119818080Y-62823450D01*
X115820120Y-62823450D01*
X115584803Y-62867728D01*
X115368679Y-63006800D01*
X115223689Y-63219000D01*
X115218910Y-63242600D01*
X107670952Y-63242600D01*
X108636152Y-62277400D01*
X115289654Y-62277400D01*
X115356030Y-62380551D01*
X115568230Y-62525541D01*
X115820120Y-62576550D01*
X119818080Y-62576550D01*
X120053397Y-62532272D01*
X120269521Y-62393200D01*
X120414511Y-62181000D01*
X120465520Y-61929110D01*
X120465520Y-60930890D01*
X120421242Y-60695573D01*
X120282170Y-60479449D01*
X120069970Y-60334459D01*
X119818080Y-60283450D01*
X115820120Y-60283450D01*
X115584803Y-60327728D01*
X115368679Y-60466800D01*
X115223689Y-60679000D01*
X115218910Y-60702600D01*
X108310000Y-60702600D01*
X108008675Y-60762537D01*
X107753224Y-60933224D01*
X105973848Y-62712600D01*
X105800952Y-62712600D01*
X108776152Y-59737400D01*
X115289654Y-59737400D01*
X115356030Y-59840551D01*
X115568230Y-59985541D01*
X115820120Y-60036550D01*
X119818080Y-60036550D01*
X120053397Y-59992272D01*
X120269521Y-59853200D01*
X120414511Y-59641000D01*
X120465520Y-59389110D01*
X120465520Y-58390890D01*
X120421242Y-58155573D01*
X120282170Y-57939449D01*
X120069970Y-57794459D01*
X119818080Y-57743450D01*
X115820120Y-57743450D01*
X115584803Y-57787728D01*
X115368679Y-57926800D01*
X115223689Y-58139000D01*
X115218910Y-58162600D01*
X108450000Y-58162600D01*
X108148675Y-58222537D01*
X107893224Y-58393224D01*
X104673848Y-61612600D01*
X101733125Y-61612600D01*
X101724090Y-61598559D01*
X101511890Y-61453569D01*
X101260000Y-61402560D01*
X99960000Y-61402560D01*
X99724683Y-61446838D01*
X99508559Y-61585910D01*
X99363569Y-61798110D01*
X99312560Y-62050000D01*
X98807440Y-62050000D01*
X98763162Y-61814683D01*
X98624090Y-61598559D01*
X98411890Y-61453569D01*
X98160000Y-61402560D01*
X96860000Y-61402560D01*
X96671416Y-61438044D01*
X95776596Y-60543224D01*
X95521145Y-60372537D01*
X95219820Y-60312600D01*
X91926152Y-60312600D01*
X90856776Y-59243224D01*
X90601325Y-59072537D01*
X90300000Y-59012600D01*
X89590338Y-59012600D01*
X89267204Y-58688902D01*
X88776713Y-58485232D01*
X88245617Y-58484769D01*
X87754771Y-58687582D01*
X87378902Y-59062796D01*
X87175232Y-59553287D01*
X87174769Y-60084383D01*
X84681501Y-60084383D01*
X84599374Y-59947000D01*
X83557000Y-59947000D01*
X83303000Y-59947000D01*
X82260626Y-59947000D01*
X82137284Y-60153329D01*
X77025500Y-60153329D01*
X77025500Y-59486671D01*
X82137284Y-59486671D01*
X82260626Y-59693000D01*
X83303000Y-59693000D01*
X83303000Y-58649794D01*
X83557000Y-58649794D01*
X83557000Y-59693000D01*
X84599374Y-59693000D01*
X84722716Y-59486671D01*
X84579797Y-59141604D01*
X84232663Y-58753236D01*
X83763331Y-58527273D01*
X83557000Y-58649794D01*
X83303000Y-58649794D01*
X83096669Y-58527273D01*
X82627337Y-58753236D01*
X82280203Y-59141604D01*
X82137284Y-59486671D01*
X77025500Y-59486671D01*
X77025500Y-54592619D01*
X77314613Y-54592619D01*
X77654155Y-55414372D01*
X78282321Y-56043636D01*
X79103481Y-56384611D01*
X79992619Y-56385387D01*
X80814372Y-56045845D01*
X81443636Y-55417679D01*
X81784611Y-54596519D01*
X81784614Y-54592619D01*
X116314613Y-54592619D01*
X116654155Y-55414372D01*
X117282321Y-56043636D01*
X118103481Y-56384611D01*
X118992619Y-56385387D01*
X119814372Y-56045845D01*
X120443636Y-55417679D01*
X120784611Y-54596519D01*
X120785387Y-53707381D01*
X120445845Y-52885628D01*
X119817679Y-52256364D01*
X118996519Y-51915389D01*
X118107381Y-51914613D01*
X117285628Y-52254155D01*
X116656364Y-52882321D01*
X116315389Y-53703481D01*
X116314613Y-54592619D01*
X81784614Y-54592619D01*
X81785387Y-53707381D01*
X81445845Y-52885628D01*
X80817679Y-52256364D01*
X79996519Y-51915389D01*
X79107381Y-51914613D01*
X78285628Y-52254155D01*
X77656364Y-52882321D01*
X77315389Y-53703481D01*
X77314613Y-54592619D01*
X77025500Y-54592619D01*
X77025500Y-51625500D01*
X121094500Y-51625500D01*
X121094500Y-75374500D01*
M02*
