G04 #@! TF.FileFunction,Copper,L2,Bot,Signal*
%FSLAX46Y46*%
G04 Gerber Fmt 4.6, Leading zero omitted, Abs format (unit mm)*
G04 Created by KiCad (PCBNEW 4.0.7) date 01/10/18 12:45:48*
%MOMM*%
%LPD*%
G01*
G04 APERTURE LIST*
%ADD10C,0.150000*%
%ADD11C,1.400000*%
%ADD12O,1.400000X1.400000*%
%ADD13C,0.254000*%
G04 APERTURE END LIST*
D10*
D11*
X88510000Y-59820000D03*
D12*
X83430000Y-59820000D03*
D11*
X88510000Y-63510000D03*
D12*
X83430000Y-63510000D03*
D11*
X88510000Y-67250000D03*
D12*
X83430000Y-67250000D03*
D13*
G36*
X121094500Y-75374500D02*
X77025500Y-75374500D01*
X77025500Y-73292619D01*
X77314613Y-73292619D01*
X77654155Y-74114372D01*
X78282321Y-74743636D01*
X79103481Y-75084611D01*
X79992619Y-75085387D01*
X80814372Y-74745845D01*
X81443636Y-74117679D01*
X81784611Y-73296519D01*
X81784614Y-73292619D01*
X116364613Y-73292619D01*
X116704155Y-74114372D01*
X117332321Y-74743636D01*
X118153481Y-75084611D01*
X119042619Y-75085387D01*
X119864372Y-74745845D01*
X120493636Y-74117679D01*
X120834611Y-73296519D01*
X120835387Y-72407381D01*
X120495845Y-71585628D01*
X119867679Y-70956364D01*
X119046519Y-70615389D01*
X118157381Y-70614613D01*
X117335628Y-70954155D01*
X116706364Y-71582321D01*
X116365389Y-72403481D01*
X116364613Y-73292619D01*
X81784614Y-73292619D01*
X81785387Y-72407381D01*
X81445845Y-71585628D01*
X80817679Y-70956364D01*
X79996519Y-70615389D01*
X79107381Y-70614613D01*
X78285628Y-70954155D01*
X77656364Y-71582321D01*
X77315389Y-72403481D01*
X77314613Y-73292619D01*
X77025500Y-73292619D01*
X77025500Y-67583329D01*
X82137284Y-67583329D01*
X82280203Y-67928396D01*
X82627337Y-68316764D01*
X83096669Y-68542727D01*
X83303000Y-68420206D01*
X83303000Y-67377000D01*
X83557000Y-67377000D01*
X83557000Y-68420206D01*
X83763331Y-68542727D01*
X84232663Y-68316764D01*
X84579797Y-67928396D01*
X84722716Y-67583329D01*
X84681501Y-67514383D01*
X87174769Y-67514383D01*
X87377582Y-68005229D01*
X87752796Y-68381098D01*
X88243287Y-68584768D01*
X88774383Y-68585231D01*
X89265229Y-68382418D01*
X89641098Y-68007204D01*
X89844768Y-67516713D01*
X89845231Y-66985617D01*
X89642418Y-66494771D01*
X89267204Y-66118902D01*
X88776713Y-65915232D01*
X88245617Y-65914769D01*
X87754771Y-66117582D01*
X87378902Y-66492796D01*
X87175232Y-66983287D01*
X87174769Y-67514383D01*
X84681501Y-67514383D01*
X84599374Y-67377000D01*
X83557000Y-67377000D01*
X83303000Y-67377000D01*
X82260626Y-67377000D01*
X82137284Y-67583329D01*
X77025500Y-67583329D01*
X77025500Y-66916671D01*
X82137284Y-66916671D01*
X82260626Y-67123000D01*
X83303000Y-67123000D01*
X83303000Y-66079794D01*
X83557000Y-66079794D01*
X83557000Y-67123000D01*
X84599374Y-67123000D01*
X84722716Y-66916671D01*
X84579797Y-66571604D01*
X84232663Y-66183236D01*
X83763331Y-65957273D01*
X83557000Y-66079794D01*
X83303000Y-66079794D01*
X83096669Y-65957273D01*
X82627337Y-66183236D01*
X82280203Y-66571604D01*
X82137284Y-66916671D01*
X77025500Y-66916671D01*
X77025500Y-63843329D01*
X82137284Y-63843329D01*
X82280203Y-64188396D01*
X82627337Y-64576764D01*
X83096669Y-64802727D01*
X83303000Y-64680206D01*
X83303000Y-63637000D01*
X83557000Y-63637000D01*
X83557000Y-64680206D01*
X83763331Y-64802727D01*
X84232663Y-64576764D01*
X84579797Y-64188396D01*
X84722716Y-63843329D01*
X84681501Y-63774383D01*
X87174769Y-63774383D01*
X87377582Y-64265229D01*
X87752796Y-64641098D01*
X88243287Y-64844768D01*
X88774383Y-64845231D01*
X89265229Y-64642418D01*
X89641098Y-64267204D01*
X89844768Y-63776713D01*
X89845231Y-63245617D01*
X89642418Y-62754771D01*
X89267204Y-62378902D01*
X88776713Y-62175232D01*
X88245617Y-62174769D01*
X87754771Y-62377582D01*
X87378902Y-62752796D01*
X87175232Y-63243287D01*
X87174769Y-63774383D01*
X84681501Y-63774383D01*
X84599374Y-63637000D01*
X83557000Y-63637000D01*
X83303000Y-63637000D01*
X82260626Y-63637000D01*
X82137284Y-63843329D01*
X77025500Y-63843329D01*
X77025500Y-63176671D01*
X82137284Y-63176671D01*
X82260626Y-63383000D01*
X83303000Y-63383000D01*
X83303000Y-62339794D01*
X83557000Y-62339794D01*
X83557000Y-63383000D01*
X84599374Y-63383000D01*
X84722716Y-63176671D01*
X84579797Y-62831604D01*
X84232663Y-62443236D01*
X83763331Y-62217273D01*
X83557000Y-62339794D01*
X83303000Y-62339794D01*
X83096669Y-62217273D01*
X82627337Y-62443236D01*
X82280203Y-62831604D01*
X82137284Y-63176671D01*
X77025500Y-63176671D01*
X77025500Y-60153329D01*
X82137284Y-60153329D01*
X82280203Y-60498396D01*
X82627337Y-60886764D01*
X83096669Y-61112727D01*
X83303000Y-60990206D01*
X83303000Y-59947000D01*
X83557000Y-59947000D01*
X83557000Y-60990206D01*
X83763331Y-61112727D01*
X84232663Y-60886764D01*
X84579797Y-60498396D01*
X84722716Y-60153329D01*
X84681501Y-60084383D01*
X87174769Y-60084383D01*
X87377582Y-60575229D01*
X87752796Y-60951098D01*
X88243287Y-61154768D01*
X88774383Y-61155231D01*
X89265229Y-60952418D01*
X89641098Y-60577204D01*
X89844768Y-60086713D01*
X89845231Y-59555617D01*
X89642418Y-59064771D01*
X89267204Y-58688902D01*
X88776713Y-58485232D01*
X88245617Y-58484769D01*
X87754771Y-58687582D01*
X87378902Y-59062796D01*
X87175232Y-59553287D01*
X87174769Y-60084383D01*
X84681501Y-60084383D01*
X84599374Y-59947000D01*
X83557000Y-59947000D01*
X83303000Y-59947000D01*
X82260626Y-59947000D01*
X82137284Y-60153329D01*
X77025500Y-60153329D01*
X77025500Y-59486671D01*
X82137284Y-59486671D01*
X82260626Y-59693000D01*
X83303000Y-59693000D01*
X83303000Y-58649794D01*
X83557000Y-58649794D01*
X83557000Y-59693000D01*
X84599374Y-59693000D01*
X84722716Y-59486671D01*
X84579797Y-59141604D01*
X84232663Y-58753236D01*
X83763331Y-58527273D01*
X83557000Y-58649794D01*
X83303000Y-58649794D01*
X83096669Y-58527273D01*
X82627337Y-58753236D01*
X82280203Y-59141604D01*
X82137284Y-59486671D01*
X77025500Y-59486671D01*
X77025500Y-54592619D01*
X77314613Y-54592619D01*
X77654155Y-55414372D01*
X78282321Y-56043636D01*
X79103481Y-56384611D01*
X79992619Y-56385387D01*
X80814372Y-56045845D01*
X81443636Y-55417679D01*
X81784611Y-54596519D01*
X81784614Y-54592619D01*
X116314613Y-54592619D01*
X116654155Y-55414372D01*
X117282321Y-56043636D01*
X118103481Y-56384611D01*
X118992619Y-56385387D01*
X119814372Y-56045845D01*
X120443636Y-55417679D01*
X120784611Y-54596519D01*
X120785387Y-53707381D01*
X120445845Y-52885628D01*
X119817679Y-52256364D01*
X118996519Y-51915389D01*
X118107381Y-51914613D01*
X117285628Y-52254155D01*
X116656364Y-52882321D01*
X116315389Y-53703481D01*
X116314613Y-54592619D01*
X81784614Y-54592619D01*
X81785387Y-53707381D01*
X81445845Y-52885628D01*
X80817679Y-52256364D01*
X79996519Y-51915389D01*
X79107381Y-51914613D01*
X78285628Y-52254155D01*
X77656364Y-52882321D01*
X77315389Y-53703481D01*
X77314613Y-54592619D01*
X77025500Y-54592619D01*
X77025500Y-51625500D01*
X121094500Y-51625500D01*
X121094500Y-75374500D01*
X121094500Y-75374500D01*
G37*
X121094500Y-75374500D02*
X77025500Y-75374500D01*
X77025500Y-73292619D01*
X77314613Y-73292619D01*
X77654155Y-74114372D01*
X78282321Y-74743636D01*
X79103481Y-75084611D01*
X79992619Y-75085387D01*
X80814372Y-74745845D01*
X81443636Y-74117679D01*
X81784611Y-73296519D01*
X81784614Y-73292619D01*
X116364613Y-73292619D01*
X116704155Y-74114372D01*
X117332321Y-74743636D01*
X118153481Y-75084611D01*
X119042619Y-75085387D01*
X119864372Y-74745845D01*
X120493636Y-74117679D01*
X120834611Y-73296519D01*
X120835387Y-72407381D01*
X120495845Y-71585628D01*
X119867679Y-70956364D01*
X119046519Y-70615389D01*
X118157381Y-70614613D01*
X117335628Y-70954155D01*
X116706364Y-71582321D01*
X116365389Y-72403481D01*
X116364613Y-73292619D01*
X81784614Y-73292619D01*
X81785387Y-72407381D01*
X81445845Y-71585628D01*
X80817679Y-70956364D01*
X79996519Y-70615389D01*
X79107381Y-70614613D01*
X78285628Y-70954155D01*
X77656364Y-71582321D01*
X77315389Y-72403481D01*
X77314613Y-73292619D01*
X77025500Y-73292619D01*
X77025500Y-67583329D01*
X82137284Y-67583329D01*
X82280203Y-67928396D01*
X82627337Y-68316764D01*
X83096669Y-68542727D01*
X83303000Y-68420206D01*
X83303000Y-67377000D01*
X83557000Y-67377000D01*
X83557000Y-68420206D01*
X83763331Y-68542727D01*
X84232663Y-68316764D01*
X84579797Y-67928396D01*
X84722716Y-67583329D01*
X84681501Y-67514383D01*
X87174769Y-67514383D01*
X87377582Y-68005229D01*
X87752796Y-68381098D01*
X88243287Y-68584768D01*
X88774383Y-68585231D01*
X89265229Y-68382418D01*
X89641098Y-68007204D01*
X89844768Y-67516713D01*
X89845231Y-66985617D01*
X89642418Y-66494771D01*
X89267204Y-66118902D01*
X88776713Y-65915232D01*
X88245617Y-65914769D01*
X87754771Y-66117582D01*
X87378902Y-66492796D01*
X87175232Y-66983287D01*
X87174769Y-67514383D01*
X84681501Y-67514383D01*
X84599374Y-67377000D01*
X83557000Y-67377000D01*
X83303000Y-67377000D01*
X82260626Y-67377000D01*
X82137284Y-67583329D01*
X77025500Y-67583329D01*
X77025500Y-66916671D01*
X82137284Y-66916671D01*
X82260626Y-67123000D01*
X83303000Y-67123000D01*
X83303000Y-66079794D01*
X83557000Y-66079794D01*
X83557000Y-67123000D01*
X84599374Y-67123000D01*
X84722716Y-66916671D01*
X84579797Y-66571604D01*
X84232663Y-66183236D01*
X83763331Y-65957273D01*
X83557000Y-66079794D01*
X83303000Y-66079794D01*
X83096669Y-65957273D01*
X82627337Y-66183236D01*
X82280203Y-66571604D01*
X82137284Y-66916671D01*
X77025500Y-66916671D01*
X77025500Y-63843329D01*
X82137284Y-63843329D01*
X82280203Y-64188396D01*
X82627337Y-64576764D01*
X83096669Y-64802727D01*
X83303000Y-64680206D01*
X83303000Y-63637000D01*
X83557000Y-63637000D01*
X83557000Y-64680206D01*
X83763331Y-64802727D01*
X84232663Y-64576764D01*
X84579797Y-64188396D01*
X84722716Y-63843329D01*
X84681501Y-63774383D01*
X87174769Y-63774383D01*
X87377582Y-64265229D01*
X87752796Y-64641098D01*
X88243287Y-64844768D01*
X88774383Y-64845231D01*
X89265229Y-64642418D01*
X89641098Y-64267204D01*
X89844768Y-63776713D01*
X89845231Y-63245617D01*
X89642418Y-62754771D01*
X89267204Y-62378902D01*
X88776713Y-62175232D01*
X88245617Y-62174769D01*
X87754771Y-62377582D01*
X87378902Y-62752796D01*
X87175232Y-63243287D01*
X87174769Y-63774383D01*
X84681501Y-63774383D01*
X84599374Y-63637000D01*
X83557000Y-63637000D01*
X83303000Y-63637000D01*
X82260626Y-63637000D01*
X82137284Y-63843329D01*
X77025500Y-63843329D01*
X77025500Y-63176671D01*
X82137284Y-63176671D01*
X82260626Y-63383000D01*
X83303000Y-63383000D01*
X83303000Y-62339794D01*
X83557000Y-62339794D01*
X83557000Y-63383000D01*
X84599374Y-63383000D01*
X84722716Y-63176671D01*
X84579797Y-62831604D01*
X84232663Y-62443236D01*
X83763331Y-62217273D01*
X83557000Y-62339794D01*
X83303000Y-62339794D01*
X83096669Y-62217273D01*
X82627337Y-62443236D01*
X82280203Y-62831604D01*
X82137284Y-63176671D01*
X77025500Y-63176671D01*
X77025500Y-60153329D01*
X82137284Y-60153329D01*
X82280203Y-60498396D01*
X82627337Y-60886764D01*
X83096669Y-61112727D01*
X83303000Y-60990206D01*
X83303000Y-59947000D01*
X83557000Y-59947000D01*
X83557000Y-60990206D01*
X83763331Y-61112727D01*
X84232663Y-60886764D01*
X84579797Y-60498396D01*
X84722716Y-60153329D01*
X84681501Y-60084383D01*
X87174769Y-60084383D01*
X87377582Y-60575229D01*
X87752796Y-60951098D01*
X88243287Y-61154768D01*
X88774383Y-61155231D01*
X89265229Y-60952418D01*
X89641098Y-60577204D01*
X89844768Y-60086713D01*
X89845231Y-59555617D01*
X89642418Y-59064771D01*
X89267204Y-58688902D01*
X88776713Y-58485232D01*
X88245617Y-58484769D01*
X87754771Y-58687582D01*
X87378902Y-59062796D01*
X87175232Y-59553287D01*
X87174769Y-60084383D01*
X84681501Y-60084383D01*
X84599374Y-59947000D01*
X83557000Y-59947000D01*
X83303000Y-59947000D01*
X82260626Y-59947000D01*
X82137284Y-60153329D01*
X77025500Y-60153329D01*
X77025500Y-59486671D01*
X82137284Y-59486671D01*
X82260626Y-59693000D01*
X83303000Y-59693000D01*
X83303000Y-58649794D01*
X83557000Y-58649794D01*
X83557000Y-59693000D01*
X84599374Y-59693000D01*
X84722716Y-59486671D01*
X84579797Y-59141604D01*
X84232663Y-58753236D01*
X83763331Y-58527273D01*
X83557000Y-58649794D01*
X83303000Y-58649794D01*
X83096669Y-58527273D01*
X82627337Y-58753236D01*
X82280203Y-59141604D01*
X82137284Y-59486671D01*
X77025500Y-59486671D01*
X77025500Y-54592619D01*
X77314613Y-54592619D01*
X77654155Y-55414372D01*
X78282321Y-56043636D01*
X79103481Y-56384611D01*
X79992619Y-56385387D01*
X80814372Y-56045845D01*
X81443636Y-55417679D01*
X81784611Y-54596519D01*
X81784614Y-54592619D01*
X116314613Y-54592619D01*
X116654155Y-55414372D01*
X117282321Y-56043636D01*
X118103481Y-56384611D01*
X118992619Y-56385387D01*
X119814372Y-56045845D01*
X120443636Y-55417679D01*
X120784611Y-54596519D01*
X120785387Y-53707381D01*
X120445845Y-52885628D01*
X119817679Y-52256364D01*
X118996519Y-51915389D01*
X118107381Y-51914613D01*
X117285628Y-52254155D01*
X116656364Y-52882321D01*
X116315389Y-53703481D01*
X116314613Y-54592619D01*
X81784614Y-54592619D01*
X81785387Y-53707381D01*
X81445845Y-52885628D01*
X80817679Y-52256364D01*
X79996519Y-51915389D01*
X79107381Y-51914613D01*
X78285628Y-52254155D01*
X77656364Y-52882321D01*
X77315389Y-53703481D01*
X77314613Y-54592619D01*
X77025500Y-54592619D01*
X77025500Y-51625500D01*
X121094500Y-51625500D01*
X121094500Y-75374500D01*
M02*
