G04 #@! TF.FileFunction,Legend,Top*
%FSLAX46Y46*%
G04 Gerber Fmt 4.6, Leading zero omitted, Abs format (unit mm)*
G04 Created by KiCad (PCBNEW 4.0.7) date 01/10/18 12:45:49*
%MOMM*%
%LPD*%
G01*
G04 APERTURE LIST*
%ADD10C,0.150000*%
%ADD11C,0.100000*%
%ADD12C,0.200000*%
%ADD13C,0.304800*%
%ADD14C,0.200660*%
%ADD15C,0.120000*%
%ADD16C,0.127000*%
G04 APERTURE END LIST*
D10*
D11*
X101902858Y-64683333D02*
X102140953Y-64683333D01*
X101855239Y-64826190D02*
X102021906Y-64326190D01*
X102188572Y-64826190D01*
X102307620Y-64326190D02*
X102617143Y-64326190D01*
X102450477Y-64516667D01*
X102521905Y-64516667D01*
X102569524Y-64540476D01*
X102593334Y-64564286D01*
X102617143Y-64611905D01*
X102617143Y-64730952D01*
X102593334Y-64778571D01*
X102569524Y-64802381D01*
X102521905Y-64826190D01*
X102379048Y-64826190D01*
X102331429Y-64802381D01*
X102307620Y-64778571D01*
X101902858Y-63573333D02*
X102140953Y-63573333D01*
X101855239Y-63716190D02*
X102021906Y-63216190D01*
X102188572Y-63716190D01*
X102331429Y-63263810D02*
X102355239Y-63240000D01*
X102402858Y-63216190D01*
X102521905Y-63216190D01*
X102569524Y-63240000D01*
X102593334Y-63263810D01*
X102617143Y-63311429D01*
X102617143Y-63359048D01*
X102593334Y-63430476D01*
X102307620Y-63716190D01*
X102617143Y-63716190D01*
X101982858Y-62443333D02*
X102220953Y-62443333D01*
X101935239Y-62586190D02*
X102101906Y-62086190D01*
X102268572Y-62586190D01*
X102697143Y-62586190D02*
X102411429Y-62586190D01*
X102554286Y-62586190D02*
X102554286Y-62086190D01*
X102506667Y-62157619D01*
X102459048Y-62205238D01*
X102411429Y-62229048D01*
X95746667Y-64838571D02*
X95722857Y-64862381D01*
X95651429Y-64886190D01*
X95603810Y-64886190D01*
X95532381Y-64862381D01*
X95484762Y-64814762D01*
X95460953Y-64767143D01*
X95437143Y-64671905D01*
X95437143Y-64600476D01*
X95460953Y-64505238D01*
X95484762Y-64457619D01*
X95532381Y-64410000D01*
X95603810Y-64386190D01*
X95651429Y-64386190D01*
X95722857Y-64410000D01*
X95746667Y-64433810D01*
X95913334Y-64386190D02*
X96222857Y-64386190D01*
X96056191Y-64576667D01*
X96127619Y-64576667D01*
X96175238Y-64600476D01*
X96199048Y-64624286D01*
X96222857Y-64671905D01*
X96222857Y-64790952D01*
X96199048Y-64838571D01*
X96175238Y-64862381D01*
X96127619Y-64886190D01*
X95984762Y-64886190D01*
X95937143Y-64862381D01*
X95913334Y-64838571D01*
X95746667Y-63668571D02*
X95722857Y-63692381D01*
X95651429Y-63716190D01*
X95603810Y-63716190D01*
X95532381Y-63692381D01*
X95484762Y-63644762D01*
X95460953Y-63597143D01*
X95437143Y-63501905D01*
X95437143Y-63430476D01*
X95460953Y-63335238D01*
X95484762Y-63287619D01*
X95532381Y-63240000D01*
X95603810Y-63216190D01*
X95651429Y-63216190D01*
X95722857Y-63240000D01*
X95746667Y-63263810D01*
X95937143Y-63263810D02*
X95960953Y-63240000D01*
X96008572Y-63216190D01*
X96127619Y-63216190D01*
X96175238Y-63240000D01*
X96199048Y-63263810D01*
X96222857Y-63311429D01*
X96222857Y-63359048D01*
X96199048Y-63430476D01*
X95913334Y-63716190D01*
X96222857Y-63716190D01*
X95766667Y-62558571D02*
X95742857Y-62582381D01*
X95671429Y-62606190D01*
X95623810Y-62606190D01*
X95552381Y-62582381D01*
X95504762Y-62534762D01*
X95480953Y-62487143D01*
X95457143Y-62391905D01*
X95457143Y-62320476D01*
X95480953Y-62225238D01*
X95504762Y-62177619D01*
X95552381Y-62130000D01*
X95623810Y-62106190D01*
X95671429Y-62106190D01*
X95742857Y-62130000D01*
X95766667Y-62153810D01*
X96242857Y-62606190D02*
X95957143Y-62606190D01*
X96100000Y-62606190D02*
X96100000Y-62106190D01*
X96052381Y-62177619D01*
X96004762Y-62225238D01*
X95957143Y-62249048D01*
D12*
X91014287Y-73278571D02*
X90514287Y-72564286D01*
X90157144Y-73278571D02*
X90157144Y-71778571D01*
X90728572Y-71778571D01*
X90871430Y-71850000D01*
X90942858Y-71921429D01*
X91014287Y-72064286D01*
X91014287Y-72278571D01*
X90942858Y-72421429D01*
X90871430Y-72492857D01*
X90728572Y-72564286D01*
X90157144Y-72564286D01*
X92442858Y-71850000D02*
X92300001Y-71778571D01*
X92085715Y-71778571D01*
X91871430Y-71850000D01*
X91728572Y-71992857D01*
X91657144Y-72135714D01*
X91585715Y-72421429D01*
X91585715Y-72635714D01*
X91657144Y-72921429D01*
X91728572Y-73064286D01*
X91871430Y-73207143D01*
X92085715Y-73278571D01*
X92228572Y-73278571D01*
X92442858Y-73207143D01*
X92514287Y-73135714D01*
X92514287Y-72635714D01*
X92228572Y-72635714D01*
X93657144Y-72492857D02*
X93871430Y-72564286D01*
X93942858Y-72635714D01*
X94014287Y-72778571D01*
X94014287Y-72992857D01*
X93942858Y-73135714D01*
X93871430Y-73207143D01*
X93728572Y-73278571D01*
X93157144Y-73278571D01*
X93157144Y-71778571D01*
X93657144Y-71778571D01*
X93800001Y-71850000D01*
X93871430Y-71921429D01*
X93942858Y-72064286D01*
X93942858Y-72207143D01*
X93871430Y-72350000D01*
X93800001Y-72421429D01*
X93657144Y-72492857D01*
X93157144Y-72492857D01*
X96300001Y-72492857D02*
X96514287Y-72564286D01*
X96585715Y-72635714D01*
X96657144Y-72778571D01*
X96657144Y-72992857D01*
X96585715Y-73135714D01*
X96514287Y-73207143D01*
X96371429Y-73278571D01*
X95800001Y-73278571D01*
X95800001Y-71778571D01*
X96300001Y-71778571D01*
X96442858Y-71850000D01*
X96514287Y-71921429D01*
X96585715Y-72064286D01*
X96585715Y-72207143D01*
X96514287Y-72350000D01*
X96442858Y-72421429D01*
X96300001Y-72492857D01*
X95800001Y-72492857D01*
X97514287Y-73278571D02*
X97371429Y-73207143D01*
X97300001Y-73135714D01*
X97228572Y-72992857D01*
X97228572Y-72564286D01*
X97300001Y-72421429D01*
X97371429Y-72350000D01*
X97514287Y-72278571D01*
X97728572Y-72278571D01*
X97871429Y-72350000D01*
X97942858Y-72421429D01*
X98014287Y-72564286D01*
X98014287Y-72992857D01*
X97942858Y-73135714D01*
X97871429Y-73207143D01*
X97728572Y-73278571D01*
X97514287Y-73278571D01*
X99300001Y-73278571D02*
X99300001Y-72492857D01*
X99228572Y-72350000D01*
X99085715Y-72278571D01*
X98800001Y-72278571D01*
X98657144Y-72350000D01*
X99300001Y-73207143D02*
X99157144Y-73278571D01*
X98800001Y-73278571D01*
X98657144Y-73207143D01*
X98585715Y-73064286D01*
X98585715Y-72921429D01*
X98657144Y-72778571D01*
X98800001Y-72707143D01*
X99157144Y-72707143D01*
X99300001Y-72635714D01*
X100014287Y-73278571D02*
X100014287Y-72278571D01*
X100014287Y-72564286D02*
X100085715Y-72421429D01*
X100157144Y-72350000D01*
X100300001Y-72278571D01*
X100442858Y-72278571D01*
X101585715Y-73278571D02*
X101585715Y-71778571D01*
X101585715Y-73207143D02*
X101442858Y-73278571D01*
X101157144Y-73278571D01*
X101014286Y-73207143D01*
X100942858Y-73135714D01*
X100871429Y-72992857D01*
X100871429Y-72564286D01*
X100942858Y-72421429D01*
X101014286Y-72350000D01*
X101157144Y-72278571D01*
X101442858Y-72278571D01*
X101585715Y-72350000D01*
X103300001Y-72278571D02*
X103657144Y-73278571D01*
X104014286Y-72278571D01*
X104871429Y-71778571D02*
X105014286Y-71778571D01*
X105157143Y-71850000D01*
X105228572Y-71921429D01*
X105300001Y-72064286D01*
X105371429Y-72350000D01*
X105371429Y-72707143D01*
X105300001Y-72992857D01*
X105228572Y-73135714D01*
X105157143Y-73207143D01*
X105014286Y-73278571D01*
X104871429Y-73278571D01*
X104728572Y-73207143D01*
X104657143Y-73135714D01*
X104585715Y-72992857D01*
X104514286Y-72707143D01*
X104514286Y-72350000D01*
X104585715Y-72064286D01*
X104657143Y-71921429D01*
X104728572Y-71850000D01*
X104871429Y-71778571D01*
X106014286Y-73135714D02*
X106085714Y-73207143D01*
X106014286Y-73278571D01*
X105942857Y-73207143D01*
X106014286Y-73135714D01*
X106014286Y-73278571D01*
X106657143Y-71921429D02*
X106728572Y-71850000D01*
X106871429Y-71778571D01*
X107228572Y-71778571D01*
X107371429Y-71850000D01*
X107442858Y-71921429D01*
X107514286Y-72064286D01*
X107514286Y-72207143D01*
X107442858Y-72421429D01*
X106585715Y-73278571D01*
X107514286Y-73278571D01*
D13*
X94790857Y-54975714D02*
X94718286Y-55072476D01*
X94500572Y-55169238D01*
X94355429Y-55169238D01*
X94137714Y-55072476D01*
X93992572Y-54878952D01*
X93920000Y-54685429D01*
X93847429Y-54298381D01*
X93847429Y-54008095D01*
X93920000Y-53621048D01*
X93992572Y-53427524D01*
X94137714Y-53234000D01*
X94355429Y-53137238D01*
X94500572Y-53137238D01*
X94718286Y-53234000D01*
X94790857Y-53330762D01*
X96097143Y-53814571D02*
X96097143Y-55169238D01*
X95444000Y-53814571D02*
X95444000Y-54878952D01*
X95516572Y-55072476D01*
X95661714Y-55169238D01*
X95879429Y-55169238D01*
X96024572Y-55072476D01*
X96097143Y-54975714D01*
X96822857Y-55169238D02*
X96822857Y-53814571D01*
X96822857Y-54201619D02*
X96895429Y-54008095D01*
X96968000Y-53911333D01*
X97113143Y-53814571D01*
X97258286Y-53814571D01*
X98346858Y-55072476D02*
X98201715Y-55169238D01*
X97911429Y-55169238D01*
X97766286Y-55072476D01*
X97693715Y-54878952D01*
X97693715Y-54104857D01*
X97766286Y-53911333D01*
X97911429Y-53814571D01*
X98201715Y-53814571D01*
X98346858Y-53911333D01*
X98419429Y-54104857D01*
X98419429Y-54298381D01*
X97693715Y-54491905D01*
X99725715Y-55169238D02*
X99725715Y-53137238D01*
X99725715Y-55072476D02*
X99580572Y-55169238D01*
X99290286Y-55169238D01*
X99145144Y-55072476D01*
X99072572Y-54975714D01*
X99000001Y-54782190D01*
X99000001Y-54201619D01*
X99072572Y-54008095D01*
X99145144Y-53911333D01*
X99290286Y-53814571D01*
X99580572Y-53814571D01*
X99725715Y-53911333D01*
X100451429Y-54975714D02*
X100524001Y-55072476D01*
X100451429Y-55169238D01*
X100378858Y-55072476D01*
X100451429Y-54975714D01*
X100451429Y-55169238D01*
X101685143Y-54104857D02*
X101902857Y-54201619D01*
X101975429Y-54298381D01*
X102048000Y-54491905D01*
X102048000Y-54782190D01*
X101975429Y-54975714D01*
X101902857Y-55072476D01*
X101757715Y-55169238D01*
X101177143Y-55169238D01*
X101177143Y-53137238D01*
X101685143Y-53137238D01*
X101830286Y-53234000D01*
X101902857Y-53330762D01*
X101975429Y-53524286D01*
X101975429Y-53717810D01*
X101902857Y-53911333D01*
X101830286Y-54008095D01*
X101685143Y-54104857D01*
X101177143Y-54104857D01*
X102701143Y-55169238D02*
X102701143Y-53814571D01*
X102701143Y-53137238D02*
X102628572Y-53234000D01*
X102701143Y-53330762D01*
X102773715Y-53234000D01*
X102701143Y-53137238D01*
X102701143Y-53330762D01*
X103644571Y-55169238D02*
X103499429Y-55072476D01*
X103426857Y-54975714D01*
X103354286Y-54782190D01*
X103354286Y-54201619D01*
X103426857Y-54008095D01*
X103499429Y-53911333D01*
X103644571Y-53814571D01*
X103862286Y-53814571D01*
X104007429Y-53911333D01*
X104080000Y-54008095D01*
X104152571Y-54201619D01*
X104152571Y-54782190D01*
X104080000Y-54975714D01*
X104007429Y-55072476D01*
X103862286Y-55169238D01*
X103644571Y-55169238D01*
D14*
X112577757Y-58738517D02*
X112720723Y-58786172D01*
X112768378Y-58833828D01*
X112816033Y-58929138D01*
X112816033Y-59072104D01*
X112768378Y-59167414D01*
X112720723Y-59215070D01*
X112625412Y-59262725D01*
X112244170Y-59262725D01*
X112244170Y-58261965D01*
X112577757Y-58261965D01*
X112673067Y-58309620D01*
X112720723Y-58357275D01*
X112768378Y-58452586D01*
X112768378Y-58547896D01*
X112720723Y-58643207D01*
X112673067Y-58690862D01*
X112577757Y-58738517D01*
X112244170Y-58738517D01*
X113387896Y-59262725D02*
X113292585Y-59215070D01*
X113244930Y-59119759D01*
X113244930Y-58261965D01*
X114198035Y-58595551D02*
X114198035Y-59262725D01*
X113769138Y-58595551D02*
X113769138Y-59119759D01*
X113816793Y-59215070D01*
X113912104Y-59262725D01*
X114055070Y-59262725D01*
X114150380Y-59215070D01*
X114198035Y-59167414D01*
X115055830Y-59215070D02*
X114960520Y-59262725D01*
X114769899Y-59262725D01*
X114674588Y-59215070D01*
X114626933Y-59119759D01*
X114626933Y-58738517D01*
X114674588Y-58643207D01*
X114769899Y-58595551D01*
X114960520Y-58595551D01*
X115055830Y-58643207D01*
X115103485Y-58738517D01*
X115103485Y-58833828D01*
X114626933Y-58929138D01*
X111841826Y-60849620D02*
X111746515Y-60801965D01*
X111603550Y-60801965D01*
X111460584Y-60849620D01*
X111365273Y-60944930D01*
X111317618Y-61040241D01*
X111269963Y-61230862D01*
X111269963Y-61373828D01*
X111317618Y-61564449D01*
X111365273Y-61659759D01*
X111460584Y-61755070D01*
X111603550Y-61802725D01*
X111698860Y-61802725D01*
X111841826Y-61755070D01*
X111889481Y-61707414D01*
X111889481Y-61373828D01*
X111698860Y-61373828D01*
X112318378Y-61802725D02*
X112318378Y-61135551D01*
X112318378Y-61326172D02*
X112366033Y-61230862D01*
X112413689Y-61183207D01*
X112508999Y-61135551D01*
X112604310Y-61135551D01*
X113319138Y-61755070D02*
X113223828Y-61802725D01*
X113033207Y-61802725D01*
X112937896Y-61755070D01*
X112890241Y-61659759D01*
X112890241Y-61278517D01*
X112937896Y-61183207D01*
X113033207Y-61135551D01*
X113223828Y-61135551D01*
X113319138Y-61183207D01*
X113366793Y-61278517D01*
X113366793Y-61373828D01*
X112890241Y-61469138D01*
X114176932Y-61755070D02*
X114081622Y-61802725D01*
X113891001Y-61802725D01*
X113795690Y-61755070D01*
X113748035Y-61659759D01*
X113748035Y-61278517D01*
X113795690Y-61183207D01*
X113891001Y-61135551D01*
X114081622Y-61135551D01*
X114176932Y-61183207D01*
X114224587Y-61278517D01*
X114224587Y-61373828D01*
X113748035Y-61469138D01*
X114653484Y-61135551D02*
X114653484Y-61802725D01*
X114653484Y-61230862D02*
X114701139Y-61183207D01*
X114796450Y-61135551D01*
X114939416Y-61135551D01*
X115034726Y-61183207D01*
X115082381Y-61278517D01*
X115082381Y-61802725D01*
X113007517Y-66209620D02*
X112912206Y-66161965D01*
X112769241Y-66161965D01*
X112626275Y-66209620D01*
X112530964Y-66304930D01*
X112483309Y-66400241D01*
X112435654Y-66590862D01*
X112435654Y-66733828D01*
X112483309Y-66924449D01*
X112530964Y-67019759D01*
X112626275Y-67115070D01*
X112769241Y-67162725D01*
X112864551Y-67162725D01*
X113007517Y-67115070D01*
X113055172Y-67067414D01*
X113055172Y-66733828D01*
X112864551Y-66733828D01*
X113484069Y-67162725D02*
X113484069Y-66161965D01*
X114055932Y-67162725D01*
X114055932Y-66161965D01*
X114532484Y-67162725D02*
X114532484Y-66161965D01*
X114770760Y-66161965D01*
X114913726Y-66209620D01*
X115009037Y-66304930D01*
X115056692Y-66400241D01*
X115104347Y-66590862D01*
X115104347Y-66733828D01*
X115056692Y-66924449D01*
X115009037Y-67019759D01*
X114913726Y-67115070D01*
X114770760Y-67162725D01*
X114532484Y-67162725D01*
X113398137Y-64402725D02*
X113064550Y-63926172D01*
X112826274Y-64402725D02*
X112826274Y-63401965D01*
X113207516Y-63401965D01*
X113302827Y-63449620D01*
X113350482Y-63497275D01*
X113398137Y-63592586D01*
X113398137Y-63735551D01*
X113350482Y-63830862D01*
X113302827Y-63878517D01*
X113207516Y-63926172D01*
X112826274Y-63926172D01*
X114208276Y-64355070D02*
X114112966Y-64402725D01*
X113922345Y-64402725D01*
X113827034Y-64355070D01*
X113779379Y-64259759D01*
X113779379Y-63878517D01*
X113827034Y-63783207D01*
X113922345Y-63735551D01*
X114112966Y-63735551D01*
X114208276Y-63783207D01*
X114255931Y-63878517D01*
X114255931Y-63973828D01*
X113779379Y-64069138D01*
X115113725Y-64402725D02*
X115113725Y-63401965D01*
X115113725Y-64355070D02*
X115018415Y-64402725D01*
X114827794Y-64402725D01*
X114732483Y-64355070D01*
X114684828Y-64307414D01*
X114637173Y-64212104D01*
X114637173Y-63926172D01*
X114684828Y-63830862D01*
X114732483Y-63783207D01*
X114827794Y-63735551D01*
X115018415Y-63735551D01*
X115113725Y-63783207D01*
D15*
X96510000Y-61700000D02*
X96510000Y-62600000D01*
X96510000Y-65300000D02*
X101410000Y-65300000D01*
X101410000Y-61700000D02*
X96510000Y-61700000D01*
X87830000Y-60680000D02*
X84110000Y-60680000D01*
X87830000Y-58960000D02*
X84110000Y-58960000D01*
X87830000Y-64370000D02*
X84110000Y-64370000D01*
X87830000Y-62650000D02*
X84110000Y-62650000D01*
X87830000Y-68110000D02*
X84110000Y-68110000D01*
X87830000Y-66390000D02*
X84110000Y-66390000D01*
D16*
X116941905Y-68542381D02*
X116941905Y-67542381D01*
X117322858Y-67542381D01*
X117418096Y-67590000D01*
X117465715Y-67637619D01*
X117513334Y-67732857D01*
X117513334Y-67875714D01*
X117465715Y-67970952D01*
X117418096Y-68018571D01*
X117322858Y-68066190D01*
X116941905Y-68066190D01*
X118465715Y-68542381D02*
X117894286Y-68542381D01*
X118180000Y-68542381D02*
X118180000Y-67542381D01*
X118084762Y-67685238D01*
X117989524Y-67780476D01*
X117894286Y-67828095D01*
D10*
X96631429Y-61402381D02*
X96298095Y-60926190D01*
X96060000Y-61402381D02*
X96060000Y-60402381D01*
X96440953Y-60402381D01*
X96536191Y-60450000D01*
X96583810Y-60497619D01*
X96631429Y-60592857D01*
X96631429Y-60735714D01*
X96583810Y-60830952D01*
X96536191Y-60878571D01*
X96440953Y-60926190D01*
X96060000Y-60926190D01*
X97583810Y-60450000D02*
X97488572Y-60402381D01*
X97345715Y-60402381D01*
X97202857Y-60450000D01*
X97107619Y-60545238D01*
X97060000Y-60640476D01*
X97012381Y-60830952D01*
X97012381Y-60973810D01*
X97060000Y-61164286D01*
X97107619Y-61259524D01*
X97202857Y-61354762D01*
X97345715Y-61402381D01*
X97440953Y-61402381D01*
X97583810Y-61354762D01*
X97631429Y-61307143D01*
X97631429Y-60973810D01*
X97440953Y-60973810D01*
X98393334Y-60878571D02*
X98536191Y-60926190D01*
X98583810Y-60973810D01*
X98631429Y-61069048D01*
X98631429Y-61211905D01*
X98583810Y-61307143D01*
X98536191Y-61354762D01*
X98440953Y-61402381D01*
X98060000Y-61402381D01*
X98060000Y-60402381D01*
X98393334Y-60402381D01*
X98488572Y-60450000D01*
X98536191Y-60497619D01*
X98583810Y-60592857D01*
X98583810Y-60688095D01*
X98536191Y-60783333D01*
X98488572Y-60830952D01*
X98393334Y-60878571D01*
X98060000Y-60878571D01*
X100298096Y-61402381D02*
X99821905Y-61402381D01*
X99821905Y-60402381D01*
X100631429Y-60878571D02*
X100964763Y-60878571D01*
X101107620Y-61402381D02*
X100631429Y-61402381D01*
X100631429Y-60402381D01*
X101107620Y-60402381D01*
X101536191Y-61402381D02*
X101536191Y-60402381D01*
X101774286Y-60402381D01*
X101917144Y-60450000D01*
X102012382Y-60545238D01*
X102060001Y-60640476D01*
X102107620Y-60830952D01*
X102107620Y-60973810D01*
X102060001Y-61164286D01*
X102012382Y-61259524D01*
X101917144Y-61354762D01*
X101774286Y-61402381D01*
X101536191Y-61402381D01*
D11*
X84910000Y-58507143D02*
X84610000Y-58078571D01*
X84395715Y-58507143D02*
X84395715Y-57607143D01*
X84738572Y-57607143D01*
X84824286Y-57650000D01*
X84867143Y-57692857D01*
X84910000Y-57778571D01*
X84910000Y-57907143D01*
X84867143Y-57992857D01*
X84824286Y-58035714D01*
X84738572Y-58078571D01*
X84395715Y-58078571D01*
X85767143Y-58507143D02*
X85252858Y-58507143D01*
X85510000Y-58507143D02*
X85510000Y-57607143D01*
X85424286Y-57735714D01*
X85338572Y-57821429D01*
X85252858Y-57864286D01*
X86881429Y-58507143D02*
X87052857Y-58507143D01*
X87138572Y-58464286D01*
X87181429Y-58421429D01*
X87267143Y-58292857D01*
X87310000Y-58121429D01*
X87310000Y-57778571D01*
X87267143Y-57692857D01*
X87224286Y-57650000D01*
X87138572Y-57607143D01*
X86967143Y-57607143D01*
X86881429Y-57650000D01*
X86838572Y-57692857D01*
X86795715Y-57778571D01*
X86795715Y-57992857D01*
X86838572Y-58078571D01*
X86881429Y-58121429D01*
X86967143Y-58164286D01*
X87138572Y-58164286D01*
X87224286Y-58121429D01*
X87267143Y-58078571D01*
X87310000Y-57992857D01*
X87867143Y-57607143D02*
X87952858Y-57607143D01*
X88038572Y-57650000D01*
X88081429Y-57692857D01*
X88124286Y-57778571D01*
X88167143Y-57950000D01*
X88167143Y-58164286D01*
X88124286Y-58335714D01*
X88081429Y-58421429D01*
X88038572Y-58464286D01*
X87952858Y-58507143D01*
X87867143Y-58507143D01*
X87781429Y-58464286D01*
X87738572Y-58421429D01*
X87695715Y-58335714D01*
X87652858Y-58164286D01*
X87652858Y-57950000D01*
X87695715Y-57778571D01*
X87738572Y-57692857D01*
X87781429Y-57650000D01*
X87867143Y-57607143D01*
X84680000Y-62277143D02*
X84380000Y-61848571D01*
X84165715Y-62277143D02*
X84165715Y-61377143D01*
X84508572Y-61377143D01*
X84594286Y-61420000D01*
X84637143Y-61462857D01*
X84680000Y-61548571D01*
X84680000Y-61677143D01*
X84637143Y-61762857D01*
X84594286Y-61805714D01*
X84508572Y-61848571D01*
X84165715Y-61848571D01*
X85022858Y-61462857D02*
X85065715Y-61420000D01*
X85151429Y-61377143D01*
X85365715Y-61377143D01*
X85451429Y-61420000D01*
X85494286Y-61462857D01*
X85537143Y-61548571D01*
X85537143Y-61634286D01*
X85494286Y-61762857D01*
X84980000Y-62277143D01*
X85537143Y-62277143D01*
X86651429Y-62277143D02*
X86822857Y-62277143D01*
X86908572Y-62234286D01*
X86951429Y-62191429D01*
X87037143Y-62062857D01*
X87080000Y-61891429D01*
X87080000Y-61548571D01*
X87037143Y-61462857D01*
X86994286Y-61420000D01*
X86908572Y-61377143D01*
X86737143Y-61377143D01*
X86651429Y-61420000D01*
X86608572Y-61462857D01*
X86565715Y-61548571D01*
X86565715Y-61762857D01*
X86608572Y-61848571D01*
X86651429Y-61891429D01*
X86737143Y-61934286D01*
X86908572Y-61934286D01*
X86994286Y-61891429D01*
X87037143Y-61848571D01*
X87080000Y-61762857D01*
X87637143Y-61377143D02*
X87722858Y-61377143D01*
X87808572Y-61420000D01*
X87851429Y-61462857D01*
X87894286Y-61548571D01*
X87937143Y-61720000D01*
X87937143Y-61934286D01*
X87894286Y-62105714D01*
X87851429Y-62191429D01*
X87808572Y-62234286D01*
X87722858Y-62277143D01*
X87637143Y-62277143D01*
X87551429Y-62234286D01*
X87508572Y-62191429D01*
X87465715Y-62105714D01*
X87422858Y-61934286D01*
X87422858Y-61720000D01*
X87465715Y-61548571D01*
X87508572Y-61462857D01*
X87551429Y-61420000D01*
X87637143Y-61377143D01*
X84361428Y-65937143D02*
X84061428Y-65508571D01*
X83847143Y-65937143D02*
X83847143Y-65037143D01*
X84190000Y-65037143D01*
X84275714Y-65080000D01*
X84318571Y-65122857D01*
X84361428Y-65208571D01*
X84361428Y-65337143D01*
X84318571Y-65422857D01*
X84275714Y-65465714D01*
X84190000Y-65508571D01*
X83847143Y-65508571D01*
X84661428Y-65037143D02*
X85218571Y-65037143D01*
X84918571Y-65380000D01*
X85047143Y-65380000D01*
X85132857Y-65422857D01*
X85175714Y-65465714D01*
X85218571Y-65551429D01*
X85218571Y-65765714D01*
X85175714Y-65851429D01*
X85132857Y-65894286D01*
X85047143Y-65937143D01*
X84790000Y-65937143D01*
X84704286Y-65894286D01*
X84661428Y-65851429D01*
X86761428Y-65937143D02*
X86247143Y-65937143D01*
X86504285Y-65937143D02*
X86504285Y-65037143D01*
X86418571Y-65165714D01*
X86332857Y-65251429D01*
X86247143Y-65294286D01*
X87575714Y-65037143D02*
X87147143Y-65037143D01*
X87104286Y-65465714D01*
X87147143Y-65422857D01*
X87232857Y-65380000D01*
X87447143Y-65380000D01*
X87532857Y-65422857D01*
X87575714Y-65465714D01*
X87618571Y-65551429D01*
X87618571Y-65765714D01*
X87575714Y-65851429D01*
X87532857Y-65894286D01*
X87447143Y-65937143D01*
X87232857Y-65937143D01*
X87147143Y-65894286D01*
X87104286Y-65851429D01*
X88175714Y-65037143D02*
X88261429Y-65037143D01*
X88347143Y-65080000D01*
X88390000Y-65122857D01*
X88432857Y-65208571D01*
X88475714Y-65380000D01*
X88475714Y-65594286D01*
X88432857Y-65765714D01*
X88390000Y-65851429D01*
X88347143Y-65894286D01*
X88261429Y-65937143D01*
X88175714Y-65937143D01*
X88090000Y-65894286D01*
X88047143Y-65851429D01*
X88004286Y-65765714D01*
X87961429Y-65594286D01*
X87961429Y-65380000D01*
X88004286Y-65208571D01*
X88047143Y-65122857D01*
X88090000Y-65080000D01*
X88175714Y-65037143D01*
M02*
